<?xml version="1.0" encoding="iso-8859-1"?>
<!-- Uploaded to: SVG Repo, www.svgrepo.com, Generator: SVG Repo Mixer Tools -->
<svg fill="#000000" height="800px" width="800px" version="1.1" id="Layer_1" xmlns="http://www.w3.org/2000/svg" xmlns:xlink="http://www.w3.org/1999/xlink" 
	 viewBox="0 0 508 508" xml:space="preserve">
<g>
	<g>
		<path d="M465.6,211.6C465.6,94.9,370.7,0,254,0S42.4,94.9,42.4,211.6c0,73.4,37.6,138.2,94.5,176.2c-26.2,28.9-41,66.6-41,106.1
			c0,7.8,6.3,14.1,14.1,14.1h288c7.8,0,14.1-6.3,14.1-14.1c0-39.4-14.8-77.1-41-106.1C428,349.8,465.6,285.1,465.6,211.6z
			 M70.6,211.6c0-101.1,82.3-183.4,183.4-183.4s183.4,82.3,183.4,183.4S355.1,395.1,254,395.1S70.6,312.8,70.6,211.6z M383.1,479.8
			H124.9c3.2-29.2,16.4-56.5,37.2-77.5c27.8,13.4,59,21,91.8,21c32.9,0,64.1-7.5,91.9-21C366.7,423.2,379.9,450.5,383.1,479.8z"/>
	</g>
</g>
<g>
	<g>
		<path d="M254,131.9c-43.9,0-79.7,35.7-79.7,79.7s35.7,79.7,79.7,79.7c43.9,0,79.7-35.7,79.7-79.7C333.7,167.7,298,131.9,254,131.9
			z M254,263c-28.3,0-51.4-23-51.4-51.4c0-28.4,23.1-51.4,51.4-51.4s51.4,23.1,51.4,51.4S282.3,263,254,263z"/>
	</g>
</g>
<g>
	<g>
		<path d="M254,56.5c-7.8,0-14.1,6.3-14.1,14.1v16.6c0,7.8,6.3,14.1,14.1,14.1s14.1-6.3,14.1-14.1V70.6
			C268.1,62.8,261.8,56.5,254,56.5z"/>
	</g>
</g>
</svg>