<?xml version="1.0" encoding="iso-8859-1"?>
<!-- Uploaded to: SVG Repo, www.svgrepo.com, Generator: SVG Repo Mixer Tools -->
<svg height="800px" width="800px" version="1.1" id="Layer_1" xmlns="http://www.w3.org/2000/svg" xmlns:xlink="http://www.w3.org/1999/xlink" 
	 viewBox="0 0 392.533 392.533" xml:space="preserve">
<path style="fill:#56ACE0;" d="M196.267,334.028c-25.406,0-49.519-5.689-71.176-15.968c-13.188,14.739-21.398,32.97-23.661,52.622
	h189.608c-2.263-19.653-10.343-37.883-23.661-52.622C245.786,328.339,221.673,334.028,196.267,334.028z"/>
<path style="fill:#FFC10D;" d="M196.267,312.242c80.032,0,145.196-65.164,145.196-145.196c0-76.412-59.345-139.184-134.271-144.808
	v12.347c0,6.012-4.848,10.925-10.925,10.925s-10.925-4.848-10.925-10.925V22.238c-75.055,5.56-134.271,68.396-134.271,144.808
	C51.071,247.143,116.234,312.242,196.267,312.242z"/>
<path style="fill:#194F82;" d="M363.313,167.046C363.313,74.925,288.388,0,196.267,0S29.22,74.925,29.22,167.046
	c0,58.699,30.513,110.481,76.477,140.218c-17.261,20.881-26.634,46.804-26.634,74.343c0,6.012,4.848,10.925,10.925,10.925h212.687
	c6.012,0,10.925-4.848,10.925-10.925c0-27.604-9.438-53.463-26.634-74.343C332.8,277.463,363.313,225.81,363.313,167.046z
	 M101.43,370.747c2.263-19.653,10.408-37.883,23.661-52.622c21.657,10.214,45.77,15.968,71.176,15.968s49.519-5.689,71.176-15.968
	c13.188,14.739,21.398,32.97,23.661,52.622H101.43z M185.341,22.238v12.347c0,6.012,4.848,10.925,10.925,10.925
	c6.012,0,10.925-4.848,10.925-10.925V22.238c75.055,5.56,134.271,68.396,134.271,144.808c0,80.032-65.164,145.196-145.196,145.196
	S51.071,247.143,51.071,167.046C51.071,90.634,110.352,27.863,185.341,22.238z"/>
<path style="fill:#FFFFFF;" d="M196.267,91.41c-41.697,0-75.636,33.939-75.636,75.636s33.939,75.636,75.636,75.636
	s75.636-33.939,75.636-75.636S237.964,91.41,196.267,91.41z"/>
<path style="fill:#194F82;" d="M196.267,69.624c-53.721,0-97.422,43.766-97.422,97.422s43.701,97.422,97.422,97.422
	s97.422-43.766,97.422-97.422C293.689,113.261,249.988,69.624,196.267,69.624z M196.267,242.618
	c-41.697,0-75.636-33.939-75.636-75.636s33.939-75.636,75.636-75.636s75.636,33.939,75.636,75.636S237.964,242.618,196.267,242.618z
	"/>
<path style="fill:#56ACE0;" d="M196.267,142.739c-13.446,0-24.372,10.925-24.372,24.372c0,13.446,10.925,24.372,24.372,24.372
	c13.446,0,24.372-10.925,24.372-24.372C220.638,153.6,209.713,142.739,196.267,142.739z"/>
<path style="fill:#194F82;" d="M196.267,120.824c-25.406,0-46.158,20.687-46.158,46.158s20.687,46.158,46.158,46.158
	s46.158-20.687,46.158-46.158S221.673,120.824,196.267,120.824z M196.267,191.418c-13.446,0-24.372-10.925-24.372-24.372
	c0-13.446,10.925-24.372,24.372-24.372c13.446,0,24.372,10.925,24.372,24.372S209.713,191.418,196.267,191.418z"/>
</svg>