<?xml version="1.0" encoding="UTF-8" standalone="no"?>
<!-- Generator: Adobe Illustrator 23.1.1, SVG Export Plug-In . SVG Version: 6.00 Build 0)  -->

<svg
   xmlns:dc="http://purl.org/dc/elements/1.1/"
   xmlns:cc="http://creativecommons.org/ns#"
   xmlns:rdf="http://www.w3.org/1999/02/22-rdf-syntax-ns#"
   xmlns:svg="http://www.w3.org/2000/svg"
   xmlns="http://www.w3.org/2000/svg"
   xmlns:xlink="http://www.w3.org/1999/xlink"
   xmlns:sodipodi="http://sodipodi.sourceforge.net/DTD/sodipodi-0.dtd"
   xmlns:inkscape="http://www.inkscape.org/namespaces/inkscape"
   version="1.1"
   x="0px"
   y="0px"
   viewBox="0 0 99.21 99.21"
   style="enable-background:new 0 0 99.21 99.21;"
   xml:space="preserve"
   id="svg723"
   sodipodi:docname="nl_chiller.svg"
   inkscape:version="0.92.3 (2405546, 2018-03-11)"><metadata
   id="metadata729"><rdf:RDF><cc:Work
       rdf:about=""><dc:format>image/svg+xml</dc:format><dc:type
         rdf:resource="http://purl.org/dc/dcmitype/StillImage" /></cc:Work></rdf:RDF></metadata><defs
   id="defs727">
	
	
	
	
	
</defs><sodipodi:namedview
   pagecolor="#ffffff"
   bordercolor="#666666"
   borderopacity="1"
   objecttolerance="10"
   gridtolerance="10"
   guidetolerance="10"
   inkscape:pageopacity="0"
   inkscape:pageshadow="2"
   inkscape:window-width="3836"
   inkscape:window-height="2055"
   id="namedview725"
   showgrid="false"
   inkscape:zoom="2.3787925"
   inkscape:cx="-24.171928"
   inkscape:cy="49.605"
   inkscape:window-x="1920"
   inkscape:window-y="75"
   inkscape:window-maximized="0"
   inkscape:current-layer="svg723" />
<style
   type="text/css"
   id="style2">
	.st0{display:none;}
	.st1{display:inline;fill:none;stroke:#000000;stroke-width:3;stroke-miterlimit:10;}
	.st2{display:inline;fill:none;stroke:#000000;stroke-width:4;stroke-linecap:round;stroke-miterlimit:10;}
	.st3{display:inline;stroke:#000000;stroke-width:3;stroke-miterlimit:10;}
	.st4{display:inline;fill:none;stroke:#000000;stroke-width:3;stroke-linecap:round;stroke-miterlimit:10;}
	.st5{display:inline;}
	.st6{fill:#1E1E1C;}
	.st7{fill:none;}
	.st8{display:inline;enable-background:new    ;}
	.st9{fill:#010202;}
	.st10{display:inline;fill:none;stroke:#000000;stroke-width:3;stroke-linecap:round;stroke-linejoin:round;stroke-miterlimit:10;}
	.st11{display:inline;fill:#010202;}
	.st12{fill:none;stroke:#000000;stroke-width:3;stroke-linecap:round;stroke-miterlimit:10;}
	.st13{enable-background:new    ;}
	.st14{fill:none;stroke:#000000;stroke-width:3;stroke-linecap:round;stroke-linejoin:round;stroke-miterlimit:10;}
	.st15{display:inline;fill:none;stroke:#010202;stroke-width:3;stroke-linecap:round;stroke-linejoin:round;stroke-miterlimit:10;}
	.st16{display:inline;fill:none;stroke:#000000;stroke-width:2;stroke-miterlimit:10;}
	.st17{fill:none;stroke:#000000;stroke-width:3;stroke-miterlimit:10;}
	.st18{display:inline;fill:none;stroke:#010202;stroke-width:3;stroke-miterlimit:10;}
	.st19{fill:none;stroke:#010202;stroke-width:3;stroke-miterlimit:10;}
	.st20{fill:none;stroke:#010202;stroke-width:3;stroke-linecap:round;stroke-miterlimit:10;}
	.st21{fill:none;stroke:#010202;stroke-width:3;stroke-linecap:round;stroke-linejoin:round;}
	.st22{clip-path:url(#SVGID_2_);}
	.st23{fill:none;stroke:#010202;stroke-miterlimit:10;}
	.st24{clip-path:url(#SVGID_4_);}
	.st25{clip-path:url(#SVGID_6_);}
	.st26{fill:none;stroke:#010202;stroke-width:2;stroke-linejoin:round;}
	.st27{font-family:'BalooBhaina-Regular';}
	.st28{font-size:18.1253px;}
</style>
<g
   id="temperatur"
   class="st0">
	<path
   class="st1"
   d="M57.11,63.42V22.8c0-3.55-2.91-6.46-6.46-6.46h-0.11c-3.55,0-6.46,2.91-6.46,6.46v40.62   c-2.49,1.94-4.1,4.96-4.1,8.37c0,5.86,4.75,10.61,10.61,10.61c5.86,0,10.61-4.75,10.61-10.61C61.21,68.39,59.6,65.37,57.11,63.42z"
   id="path4" />
	<line
   class="st2"
   x1="50.6"
   y1="35.56"
   x2="50.6"
   y2="73.34"
   id="line6" />
	<path
   class="st3"
   d="M54.03,71.79c0-1.89-1.54-3.43-3.43-3.43c-1.89,0-3.43,1.53-3.43,3.43c0,1.89,1.54,3.43,3.43,3.43   C52.49,75.22,54.03,73.69,54.03,71.79"
   id="path8" />
	<line
   class="st4"
   x1="38"
   y1="22.82"
   x2="28.19"
   y2="22.82"
   id="line10" />
	<line
   class="st4"
   x1="38"
   y1="28.09"
   x2="32.29"
   y2="28.09"
   id="line12" />
	<line
   class="st4"
   x1="38"
   y1="33.37"
   x2="28.19"
   y2="33.37"
   id="line14" />
	<line
   class="st4"
   x1="38"
   y1="38.64"
   x2="32.29"
   y2="38.64"
   id="line16" />
</g>
<g
   id="temperatur_x5F_neu"
   class="st0">
	<g
   class="st5"
   id="g25">
		<g
   id="co2_Kopie_2_">
			<path
   class="st6"
   d="M37.23,83.54c-7.05-0.01-12.88-5.51-13.29-12.55h-6.76C8.56,70.96,1.59,63.94,1.62,55.31     c0.03-7.89,5.94-14.52,13.77-15.45c0-0.46-0.05-0.9-0.05-1.34c-0.03-12.7,10.24-23.03,22.94-23.06     c9.31-0.02,17.72,5.57,21.3,14.18c6.41-4.41,15.18-2.79,19.6,3.62c1.33,1.93,2.16,4.16,2.4,6.49h0.41     c8.63,0,15.62,6.99,15.62,15.62c0,8.63-6.99,15.62-15.62,15.62c0,0-0.01,0-0.01,0H50.58C50.16,78.05,44.31,83.56,37.23,83.54z      M38.33,18.54c-11.05,0-20,8.95-20,20c0.01,0.85,0.07,1.7,0.18,2.55c0.06,0.43-0.07,0.86-0.35,1.18     c-0.28,0.32-0.69,0.51-1.12,0.51c-6.97,0.23-12.43,6.06-12.2,13.03c0.22,6.7,5.63,12.05,12.33,12.2h8.27     c0.41,0,0.81,0.17,1.09,0.47c0.27,0.29,0.42,0.67,0.42,1.06v0.19c0,0.14,0,0.29,0,0.44c0,5.7,4.62,10.32,10.32,10.32     s10.32-4.62,10.32-10.32c0-0.15,0-0.3,0-0.44v-0.19c-0.06-0.82,0.57-1.53,1.39-1.59c0.04,0,0.08,0,0.11,0h33     c6.97,0,12.62-5.64,12.63-12.61c0-6.97-5.64-12.62-12.61-12.63c0,0-0.01,0-0.01,0h-1.95c-0.83,0-1.5-0.67-1.5-1.5     c-0.01-6.12-4.98-11.09-11.1-11.08c-2.85,0-5.6,1.11-7.66,3.08c-0.38,0.35-0.91,0.49-1.41,0.36c-0.5-0.13-0.9-0.5-1.06-1     C54.84,24.2,47.09,18.5,38.33,18.54z"
   id="path19" />
		</g>
		<g
   id="quadrate_2_">
			<rect
   x="0.58"
   y="0.54"
   class="st7"
   width="97.99"
   height="97.99"
   id="rect22" />
		</g>
	</g>
	<g
   class="st8"
   id="g33">
		<g
   id="g31">
			<path
   class="st9"
   d="M38.68,49.29c-1.55,0-2.75-0.42-3.61-1.27c-0.86-0.84-1.28-1.91-1.28-3.2c0-1.33,0.44-2.41,1.33-3.24     c0.89-0.83,2.11-1.25,3.68-1.25c1.51,0,2.71,0.42,3.59,1.25c0.89,0.84,1.33,1.92,1.33,3.24c0,0.64-0.12,1.24-0.36,1.78     c-0.24,0.54-0.58,1.02-1.03,1.42s-0.98,0.71-1.6,0.94C40.11,49.18,39.43,49.29,38.68,49.29z M38.71,46.43     c0.42,0,0.77-0.14,1.04-0.42s0.41-0.67,0.41-1.18c0-0.48-0.12-0.87-0.36-1.16c-0.24-0.29-0.57-0.44-1-0.44     c-0.4,0-0.74,0.14-1.03,0.41c-0.28,0.27-0.42,0.67-0.42,1.19c0,0.5,0.12,0.9,0.36,1.18S38.29,46.43,38.71,46.43z"
   id="path27" />
			<path
   class="st9"
   d="M55.19,45.64c-1.55,0-2.74,0.47-3.56,1.42c-0.83,0.95-1.24,2.28-1.24,4.01c0,1.75,0.46,3.1,1.37,4.04     c0.92,0.95,2.15,1.42,3.7,1.42c0.82,0,1.52-0.11,2.1-0.33c0.57-0.22,1.12-0.47,1.64-0.75c0.34,0.28,0.61,0.62,0.8,1.01     c0.19,0.39,0.28,0.85,0.28,1.37c0,0.83-0.46,1.52-1.37,2.1c-0.91,0.57-2.31,0.86-4.18,0.86c-1.35,0-2.62-0.19-3.8-0.57     c-1.19-0.38-2.22-0.97-3.11-1.77c-0.89-0.8-1.58-1.8-2.1-3.02c-0.51-1.22-0.77-2.67-0.77-4.36c0-1.57,0.25-2.95,0.74-4.15     c0.49-1.2,1.17-2.21,2.02-3.03c0.85-0.82,1.86-1.45,3-1.87c1.15-0.42,2.37-0.63,3.68-0.63c1.85,0,3.28,0.3,4.3,0.91     c1.02,0.6,1.52,1.38,1.52,2.32c0,0.52-0.13,0.98-0.39,1.36c-0.26,0.38-0.56,0.68-0.9,0.91c-0.52-0.34-1.08-0.63-1.68-0.87     C56.67,45.76,55.98,45.64,55.19,45.64z"
   id="path29" />
		</g>
	</g>
</g>
<g
   id="heizen_1_"
   class="st0">
	<g
   class="st5"
   id="g42">
		<g
   id="co2_Kopie_6_">
			<path
   class="st6"
   d="M37.23,83.54c-7.05-0.01-12.88-5.51-13.29-12.55h-6.76C8.56,70.96,1.59,63.94,1.62,55.31     c0.03-7.89,5.94-14.52,13.77-15.45c0-0.46-0.05-0.9-0.05-1.34c-0.03-12.7,10.24-23.03,22.94-23.06     c9.31-0.02,17.72,5.57,21.3,14.18c6.41-4.41,15.18-2.79,19.6,3.62c1.33,1.93,2.16,4.16,2.4,6.49h0.41     c8.63,0,15.62,6.99,15.62,15.62c0,8.63-6.99,15.62-15.62,15.62c0,0-0.01,0-0.01,0H50.58C50.16,78.05,44.31,83.56,37.23,83.54z      M38.33,18.54c-11.05,0-20,8.95-20,20c0.01,0.85,0.07,1.7,0.18,2.55c0.06,0.43-0.07,0.86-0.35,1.18     c-0.28,0.32-0.69,0.51-1.12,0.51c-6.97,0.23-12.43,6.06-12.2,13.03c0.22,6.7,5.63,12.05,12.33,12.2h8.27     c0.41,0,0.81,0.17,1.09,0.47c0.27,0.29,0.42,0.67,0.42,1.06v0.19c0,0.14,0,0.29,0,0.44c0,5.7,4.62,10.32,10.32,10.32     s10.32-4.62,10.32-10.32c0-0.15,0-0.3,0-0.44v-0.19c-0.06-0.82,0.57-1.53,1.39-1.59c0.04,0,0.08,0,0.11,0h33     c6.97,0,12.62-5.64,12.63-12.61c0-6.97-5.64-12.62-12.61-12.63c0,0-0.01,0-0.01,0h-1.95c-0.83,0-1.5-0.67-1.5-1.5     c-0.01-6.12-4.98-11.09-11.1-11.08c-2.85,0-5.6,1.11-7.66,3.08c-0.38,0.35-0.91,0.49-1.41,0.36c-0.5-0.13-0.9-0.5-1.06-1     C54.84,24.2,47.09,18.5,38.33,18.54z"
   id="path36" />
		</g>
		<g
   id="quadrate_5_">
			<rect
   x="0.58"
   y="0.54"
   class="st7"
   width="97.99"
   height="97.99"
   id="rect39" />
		</g>
	</g>
	<g
   class="st8"
   id="g50">
		<g
   id="g48">
			<path
   class="st9"
   d="M38.68,49.29c-1.55,0-2.75-0.42-3.61-1.27c-0.86-0.84-1.28-1.91-1.28-3.2c0-1.33,0.44-2.41,1.33-3.24     c0.89-0.83,2.11-1.25,3.68-1.25c1.51,0,2.71,0.42,3.59,1.25c0.89,0.84,1.33,1.92,1.33,3.24c0,0.64-0.12,1.24-0.36,1.78     c-0.24,0.54-0.58,1.02-1.03,1.42s-0.98,0.71-1.6,0.94C40.11,49.18,39.43,49.29,38.68,49.29z M38.71,46.43     c0.42,0,0.77-0.14,1.04-0.42s0.41-0.67,0.41-1.18c0-0.48-0.12-0.87-0.36-1.16c-0.24-0.29-0.57-0.44-1-0.44     c-0.4,0-0.74,0.14-1.03,0.41c-0.28,0.27-0.42,0.67-0.42,1.19c0,0.5,0.12,0.9,0.36,1.18S38.29,46.43,38.71,46.43z"
   id="path44" />
			<path
   class="st9"
   d="M55.19,45.64c-1.55,0-2.74,0.47-3.56,1.42c-0.83,0.95-1.24,2.28-1.24,4.01c0,1.75,0.46,3.1,1.37,4.04     c0.92,0.95,2.15,1.42,3.7,1.42c0.82,0,1.52-0.11,2.1-0.33c0.57-0.22,1.12-0.47,1.64-0.75c0.34,0.28,0.61,0.62,0.8,1.01     c0.19,0.39,0.28,0.85,0.28,1.37c0,0.83-0.46,1.52-1.37,2.1c-0.91,0.57-2.31,0.86-4.18,0.86c-1.35,0-2.62-0.19-3.8-0.57     c-1.19-0.38-2.22-0.97-3.11-1.77c-0.89-0.8-1.58-1.8-2.1-3.02c-0.51-1.22-0.77-2.67-0.77-4.36c0-1.57,0.25-2.95,0.74-4.15     c0.49-1.2,1.17-2.21,2.02-3.03c0.85-0.82,1.86-1.45,3-1.87c1.15-0.42,2.37-0.63,3.68-0.63c1.85,0,3.28,0.3,4.3,0.91     c1.02,0.6,1.52,1.38,1.52,2.32c0,0.52-0.13,0.98-0.39,1.36c-0.26,0.38-0.56,0.68-0.9,0.91c-0.52-0.34-1.08-0.63-1.68-0.87     C56.67,45.76,55.98,45.64,55.19,45.64z"
   id="path46" />
		</g>
	</g>
	<line
   class="st10"
   x1="84.47"
   y1="5.04"
   x2="84.47"
   y2="33.41"
   id="line52" />
	<polyline
   class="st10"
   points="75.93,14.28 84.36,2.49 93.01,14.28  "
   id="polyline54" />
</g>
<g
   id="kühlen_1_"
   class="st0">
	<g
   class="st5"
   id="g63">
		<g
   id="co2_Kopie_7_">
			<path
   class="st6"
   d="M37.23,83.54c-7.05-0.01-12.88-5.51-13.29-12.55h-6.76C8.56,70.96,1.59,63.94,1.62,55.31     c0.03-7.89,5.94-14.52,13.77-15.45c0-0.46-0.05-0.9-0.05-1.34c-0.03-12.7,10.24-23.03,22.94-23.06     c9.31-0.02,17.72,5.57,21.3,14.18c6.41-4.41,15.18-2.79,19.6,3.62c1.33,1.93,2.16,4.16,2.4,6.49h0.41     c8.63,0,15.62,6.99,15.62,15.62c0,8.63-6.99,15.62-15.62,15.62c0,0-0.01,0-0.01,0H50.58C50.16,78.05,44.31,83.56,37.23,83.54z      M38.33,18.54c-11.05,0-20,8.95-20,20c0.01,0.85,0.07,1.7,0.18,2.55c0.06,0.43-0.07,0.86-0.35,1.18     c-0.28,0.32-0.69,0.51-1.12,0.51c-6.97,0.23-12.43,6.06-12.2,13.03c0.22,6.7,5.63,12.05,12.33,12.2h8.27     c0.41,0,0.81,0.17,1.09,0.47c0.27,0.29,0.42,0.67,0.42,1.06v0.19c0,0.14,0,0.29,0,0.44c0,5.7,4.62,10.32,10.32,10.32     s10.32-4.62,10.32-10.32c0-0.15,0-0.3,0-0.44v-0.19c-0.06-0.82,0.57-1.53,1.39-1.59c0.04,0,0.08,0,0.11,0h33     c6.97,0,12.62-5.64,12.63-12.61c0-6.97-5.64-12.62-12.61-12.63c0,0-0.01,0-0.01,0h-1.95c-0.83,0-1.5-0.67-1.5-1.5     c-0.01-6.12-4.98-11.09-11.1-11.08c-2.85,0-5.6,1.11-7.66,3.08c-0.38,0.35-0.91,0.49-1.41,0.36c-0.5-0.13-0.9-0.5-1.06-1     C54.84,24.2,47.09,18.5,38.33,18.54z"
   id="path57" />
		</g>
		<g
   id="quadrate_6_">
			<rect
   x="0.58"
   y="0.54"
   class="st7"
   width="97.99"
   height="97.99"
   id="rect60" />
		</g>
	</g>
	<g
   class="st8"
   id="g71">
		<g
   id="g69">
			<path
   class="st9"
   d="M38.68,49.29c-1.55,0-2.75-0.42-3.61-1.27c-0.86-0.84-1.28-1.91-1.28-3.2c0-1.33,0.44-2.41,1.33-3.24     c0.89-0.83,2.11-1.25,3.68-1.25c1.51,0,2.71,0.42,3.59,1.25c0.89,0.84,1.33,1.92,1.33,3.24c0,0.64-0.12,1.24-0.36,1.78     c-0.24,0.54-0.58,1.02-1.03,1.42s-0.98,0.71-1.6,0.94C40.11,49.18,39.43,49.29,38.68,49.29z M38.71,46.43     c0.42,0,0.77-0.14,1.04-0.42s0.41-0.67,0.41-1.18c0-0.48-0.12-0.87-0.36-1.16c-0.24-0.29-0.57-0.44-1-0.44     c-0.4,0-0.74,0.14-1.03,0.41c-0.28,0.27-0.42,0.67-0.42,1.19c0,0.5,0.12,0.9,0.36,1.18S38.29,46.43,38.71,46.43z"
   id="path65" />
			<path
   class="st9"
   d="M55.19,45.64c-1.55,0-2.74,0.47-3.56,1.42c-0.83,0.95-1.24,2.28-1.24,4.01c0,1.75,0.46,3.1,1.37,4.04     c0.92,0.95,2.15,1.42,3.7,1.42c0.82,0,1.52-0.11,2.1-0.33c0.57-0.22,1.12-0.47,1.64-0.75c0.34,0.28,0.61,0.62,0.8,1.01     c0.19,0.39,0.28,0.85,0.28,1.37c0,0.83-0.46,1.52-1.37,2.1c-0.91,0.57-2.31,0.86-4.18,0.86c-1.35,0-2.62-0.19-3.8-0.57     c-1.19-0.38-2.22-0.97-3.11-1.77c-0.89-0.8-1.58-1.8-2.1-3.02c-0.51-1.22-0.77-2.67-0.77-4.36c0-1.57,0.25-2.95,0.74-4.15     c0.49-1.2,1.17-2.21,2.02-3.03c0.85-0.82,1.86-1.45,3-1.87c1.15-0.42,2.37-0.63,3.68-0.63c1.85,0,3.28,0.3,4.3,0.91     c1.02,0.6,1.52,1.38,1.52,2.32c0,0.52-0.13,0.98-0.39,1.36c-0.26,0.38-0.56,0.68-0.9,0.91c-0.52-0.34-1.08-0.63-1.68-0.87     C56.67,45.76,55.98,45.64,55.19,45.64z"
   id="path67" />
		</g>
	</g>
	<line
   class="st10"
   x1="84.47"
   y1="30.86"
   x2="84.47"
   y2="2.49"
   id="line73" />
	<polyline
   class="st10"
   points="93.01,21.62 84.58,33.41 75.93,21.62  "
   id="polyline75" />
</g>
<g
   id="luftfeuchtigkeit"
   class="st0">
	<path
   class="st11"
   d="M37.21,83.58c-7.05-0.01-12.88-5.51-13.29-12.55h-6.76C8.53,70.99,1.56,63.97,1.6,55.35   c0.03-7.89,5.94-14.52,13.77-15.45c0-0.46-0.05-0.9-0.05-1.34c-0.03-12.7,10.24-23.03,22.94-23.06c9.31-0.02,17.72,5.57,21.3,14.18   c6.41-4.41,15.18-2.79,19.6,3.62c1.33,1.93,2.16,4.16,2.4,6.49h0.41c8.63,0,15.62,6.99,15.62,15.62c0,8.63-6.99,15.62-15.62,15.62   c0,0-0.01,0-0.01,0H50.56C50.14,78.09,44.28,83.59,37.21,83.58z M38.31,18.58c-11.05,0-20,8.95-20,20c0.01,0.85,0.07,1.7,0.18,2.55   c0.06,0.43-0.07,0.86-0.35,1.18c-0.28,0.32-0.69,0.51-1.12,0.51c-6.97,0.23-12.43,6.06-12.2,13.03c0.22,6.7,5.63,12.05,12.33,12.2   h8.27c0.41,0,0.81,0.17,1.09,0.47c0.27,0.29,0.42,0.67,0.42,1.06v0.19c0,0.14,0,0.29,0,0.44c0,5.7,4.62,10.32,10.32,10.32   s10.32-4.62,10.32-10.32c0-0.15,0-0.3,0-0.44v-0.19c-0.06-0.82,0.57-1.53,1.39-1.59c0.04,0,0.08,0,0.11,0h33   c6.97,0,12.62-5.64,12.63-12.61c0-6.97-5.64-12.62-12.61-12.63c0,0-0.01,0-0.01,0h-1.95c-0.83,0-1.5-0.67-1.5-1.5   c-0.01-6.12-4.98-11.09-11.1-11.08c-2.85,0-5.6,1.11-7.66,3.08c-0.38,0.35-0.91,0.49-1.41,0.36c-0.5-0.13-0.9-0.5-1.06-1   C54.81,24.24,47.06,18.54,38.31,18.58z"
   id="path78" />
	<g
   class="st5"
   id="g82">
		<path
   d="M47.43,45.48c0,1.64-0.49,2.92-1.48,3.84c-0.99,0.92-2.26,1.38-3.81,1.38c-1.58,0-2.85-0.46-3.83-1.38    c-0.98-0.92-1.46-2.2-1.46-3.84c0-1.62,0.49-2.89,1.46-3.81c0.97-0.92,2.25-1.38,3.83-1.38c1.55,0,2.83,0.46,3.81,1.38    C46.93,42.59,47.43,43.86,47.43,45.48z M40.82,45.48c0,0.66,0.13,1.14,0.38,1.46c0.25,0.32,0.56,0.48,0.94,0.48    c0.37,0,0.68-0.16,0.94-0.48c0.25-0.32,0.38-0.8,0.38-1.46c0-0.64-0.13-1.11-0.38-1.41c-0.25-0.31-0.56-0.46-0.94-0.46    c-0.37,0-0.68,0.15-0.94,0.46C40.95,44.38,40.82,44.85,40.82,45.48z M53.57,40.26c0.74,0.11,1.41,0.31,1.99,0.61    c0.58,0.3,0.89,0.7,0.94,1.2c0,0.35-0.09,0.71-0.26,1.08c-0.18,0.37-0.41,0.76-0.69,1.15L44.17,60.76    c-0.7-0.11-1.29-0.31-1.76-0.61c-0.47-0.3-0.73-0.7-0.77-1.2c0-0.35,0.03-0.69,0.08-1.03c0.05-0.34,0.22-0.73,0.51-1.17    L53.57,40.26z M61.19,55.57c0,1.64-0.49,2.92-1.48,3.84c-0.99,0.92-2.26,1.38-3.81,1.38c-1.58,0-2.85-0.46-3.83-1.38    c-0.97-0.92-1.46-2.2-1.46-3.84c0-1.62,0.49-2.89,1.46-3.81c0.98-0.92,2.25-1.38,3.83-1.38c1.56,0,2.82,0.46,3.81,1.38    C60.7,52.68,61.19,53.95,61.19,55.57z M54.59,55.57c0,0.66,0.13,1.14,0.38,1.46c0.25,0.32,0.56,0.48,0.94,0.48    c0.37,0,0.68-0.16,0.94-0.48c0.25-0.32,0.38-0.8,0.38-1.46c0-0.63-0.13-1.11-0.38-1.41c-0.25-0.31-0.56-0.46-0.94-0.46    c-0.37,0-0.68,0.15-0.94,0.46C54.72,54.46,54.59,54.93,54.59,55.57z"
   id="path80" />
	</g>
</g>
<g
   id="ph_x5F_wert"
   class="st0">
	<path
   class="st4"
   d="M35.93,31.89c-1.19,1.67-2.27,3.29-3.15,4.76c-4.01,6.7-10.16,18.38-6.1,29.68h0   c3.73,9.71,12.5,16.53,22.73,16.53c10.24,0,19.01-6.82,22.74-16.53"
   id="path85" />
	<path
   class="st4"
   d="M41.17,25.1c2.49-3.17,4.29-5.44,5.98-7.43c1.19-1.4,3.34-1.4,4.52,0c3.64,4.29,10.74,12.91,14.37,18.98   c4.01,6.7,10.16,18.38,6.1,29.68"
   id="path87" />
	<line
   class="st4"
   x1="38.64"
   y1="28.32"
   x2="38.14"
   y2="29"
   id="line89" />
	<g
   class="st5"
   id="g95">
		<path
   d="M37.8,44.49c1.2,0,2.31,0.15,3.34,0.46c1.03,0.31,1.91,0.78,2.65,1.42c0.74,0.64,1.32,1.44,1.74,2.41s0.63,2.12,0.63,3.46    c0,1.28-0.18,2.4-0.54,3.35c-0.36,0.96-0.87,1.76-1.53,2.41c-0.66,0.65-1.45,1.13-2.38,1.45c-0.93,0.32-1.96,0.48-3.1,0.48    c-0.86,0-1.66-0.13-2.4-0.39v4.97c-0.2,0.06-0.36,0.75-0.8,0.82c-0.44,0.07-0.89,0.11-1.35,0.11c-0.44,0-0.83-0.03-1.18-0.09    c-0.35-0.06-0.8-0.81-1.04-0.99c-0.24-0.18-0.42-0.42-0.54-0.73c-0.12-0.31-0.18-0.71-0.18-1.21V48.05c0-0.54,0.11-0.98,0.34-1.32    c0.23-0.34,0.54-0.65,0.94-0.93c0.62-0.4,1.39-0.72,2.31-0.96C35.63,44.61,36.66,44.49,37.8,44.49z M37.86,55.93    c2.06,0,3.08-1.23,3.08-3.68c0-1.28-0.25-2.23-0.76-2.84c-0.51-0.62-1.24-0.93-2.2-0.93c-0.38,0-0.72,0.04-1.02,0.13    c-0.3,0.09-0.56,0.2-0.78,0.31v6.59c0.24,0.12,0.5,0.22,0.78,0.3C37.24,55.89,37.54,55.93,37.86,55.93z"
   id="path91" />
		<path
   d="M65.26,59.37c-0.22,0.06-0.56,0.12-1.03,0.18c-0.47,0.06-0.93,0.09-1.39,0.09c-0.46,0-0.86-0.03-1.21-0.1    c-0.35-0.07-0.64-0.19-0.88-0.37c-0.24-0.18-0.42-0.43-0.54-0.75c-0.12-0.32-0.18-0.74-0.18-1.26v-4.67h-5.75v6.89    c-0.22,0.06-0.56,0.12-1.03,0.18c-0.47,0.06-0.93,0.09-1.39,0.09c-0.46,0-0.86-0.03-1.21-0.1c-0.35-0.07-0.64-0.19-0.88-0.37    c-0.24-0.18-0.42-0.43-0.54-0.75c-0.12-0.32-0.18-0.74-0.18-1.26V41.34c0.22-0.04,0.57-0.09,1.05-0.16s0.94-0.1,1.38-0.1    c0.46,0,0.86,0.03,1.21,0.1c0.35,0.07,0.64,0.19,0.88,0.37c0.24,0.18,0.42,0.43,0.54,0.75c0.12,0.32,0.18,0.74,0.18,1.26v4.79    h5.75v-7.01c0.22-0.04,0.57-0.09,1.05-0.16s0.94-0.1,1.38-0.1c0.46,0,0.86,0.03,1.21,0.1c0.35,0.07,0.64,0.19,0.88,0.37    c0.24,0.18,0.42,0.43,0.54,0.75c0.12,0.32,0.18,0.74,0.18,1.26V59.37z"
   id="path93" />
	</g>
</g>
<g
   id="ph_x5F_wert_x5F_up_1_"
   class="st0">
	<path
   class="st4"
   d="M35.93,31.89c-1.19,1.67-2.27,3.29-3.15,4.76c-4.01,6.7-10.16,18.38-6.1,29.68h0   c3.73,9.71,12.5,16.53,22.73,16.53c10.24,0,19.01-6.82,22.74-16.53"
   id="path98" />
	<path
   class="st4"
   d="M41.17,25.1c2.49-3.17,4.29-5.44,5.98-7.43c1.19-1.4,3.34-1.4,4.52,0c3.64,4.29,10.74,12.91,14.37,18.98   c4.01,6.7,10.16,18.38,6.1,29.68"
   id="path100" />
	<line
   class="st4"
   x1="38.64"
   y1="28.32"
   x2="38.14"
   y2="29"
   id="line102" />
	<g
   class="st5"
   id="g108">
		<path
   d="M37.8,44.49c1.2,0,2.31,0.15,3.34,0.46c1.03,0.31,1.91,0.78,2.65,1.42c0.74,0.64,1.32,1.44,1.74,2.41s0.63,2.12,0.63,3.46    c0,1.28-0.18,2.4-0.54,3.35c-0.36,0.96-0.87,1.76-1.53,2.41c-0.66,0.65-1.45,1.13-2.38,1.45c-0.93,0.32-1.96,0.48-3.1,0.48    c-0.86,0-1.66-0.13-2.4-0.39v4.97c-0.2,0.06-0.36,0.75-0.8,0.82c-0.44,0.07-0.89,0.11-1.35,0.11c-0.44,0-0.83-0.03-1.18-0.09    c-0.35-0.06-0.8-0.81-1.04-0.99c-0.24-0.18-0.42-0.42-0.54-0.73c-0.12-0.31-0.18-0.71-0.18-1.21V48.05c0-0.54,0.11-0.98,0.34-1.32    c0.23-0.34,0.54-0.65,0.94-0.93c0.62-0.4,1.39-0.72,2.31-0.96C35.63,44.61,36.66,44.49,37.8,44.49z M37.86,55.93    c2.06,0,3.08-1.23,3.08-3.68c0-1.28-0.25-2.23-0.76-2.84c-0.51-0.62-1.24-0.93-2.2-0.93c-0.38,0-0.72,0.04-1.02,0.13    c-0.3,0.09-0.56,0.2-0.78,0.31v6.59c0.24,0.12,0.5,0.22,0.78,0.3C37.24,55.89,37.54,55.93,37.86,55.93z"
   id="path104" />
		<path
   d="M65.26,59.37c-0.22,0.06-0.56,0.12-1.03,0.18c-0.47,0.06-0.93,0.09-1.39,0.09c-0.46,0-0.86-0.03-1.21-0.1    c-0.35-0.07-0.64-0.19-0.88-0.37c-0.24-0.18-0.42-0.43-0.54-0.75c-0.12-0.32-0.18-0.74-0.18-1.26v-4.67h-5.75v6.89    c-0.22,0.06-0.56,0.12-1.03,0.18c-0.47,0.06-0.93,0.09-1.39,0.09c-0.46,0-0.86-0.03-1.21-0.1c-0.35-0.07-0.64-0.19-0.88-0.37    c-0.24-0.18-0.42-0.43-0.54-0.75c-0.12-0.32-0.18-0.74-0.18-1.26V41.34c0.22-0.04,0.57-0.09,1.05-0.16s0.94-0.1,1.38-0.1    c0.46,0,0.86,0.03,1.21,0.1c0.35,0.07,0.64,0.19,0.88,0.37c0.24,0.18,0.42,0.43,0.54,0.75c0.12,0.32,0.18,0.74,0.18,1.26v4.79    h5.75v-7.01c0.22-0.04,0.57-0.09,1.05-0.16s0.94-0.1,1.38-0.1c0.46,0,0.86,0.03,1.21,0.1c0.35,0.07,0.64,0.19,0.88,0.37    c0.24,0.18,0.42,0.43,0.54,0.75c0.12,0.32,0.18,0.74,0.18,1.26V59.37z"
   id="path106" />
	</g>
	<line
   class="st10"
   x1="77.65"
   y1="5.7"
   x2="77.65"
   y2="34.08"
   id="line110" />
	<polyline
   class="st10"
   points="69.11,14.95 77.54,3.15 86.19,14.95  "
   id="polyline112" />
</g>
<g
   id="ph_x5F_wert_x5F_down"
   class="st0">
	<path
   class="st4"
   d="M35.93,31.89c-1.19,1.67-2.27,3.29-3.15,4.76c-4.01,6.7-10.16,18.38-6.1,29.68h0   c3.73,9.71,12.5,16.53,22.73,16.53c10.24,0,19.01-6.82,22.74-16.53"
   id="path115" />
	<path
   class="st4"
   d="M41.17,25.1c2.49-3.17,4.29-5.44,5.98-7.43c1.19-1.4,3.34-1.4,4.52,0c3.64,4.29,10.74,12.91,14.37,18.98   c4.01,6.7,10.16,18.38,6.1,29.68"
   id="path117" />
	<line
   class="st4"
   x1="38.64"
   y1="28.32"
   x2="38.14"
   y2="29"
   id="line119" />
	<g
   class="st5"
   id="g125">
		<path
   d="M37.8,44.49c1.2,0,2.31,0.15,3.34,0.46c1.03,0.31,1.91,0.78,2.65,1.42c0.74,0.64,1.32,1.44,1.74,2.41s0.63,2.12,0.63,3.46    c0,1.28-0.18,2.4-0.54,3.35c-0.36,0.96-0.87,1.76-1.53,2.41c-0.66,0.65-1.45,1.13-2.38,1.45c-0.93,0.32-1.96,0.48-3.1,0.48    c-0.86,0-1.66-0.13-2.4-0.39v4.97c-0.2,0.06-0.36,0.75-0.8,0.82c-0.44,0.07-0.89,0.11-1.35,0.11c-0.44,0-0.83-0.03-1.18-0.09    c-0.35-0.06-0.8-0.81-1.04-0.99c-0.24-0.18-0.42-0.42-0.54-0.73c-0.12-0.31-0.18-0.71-0.18-1.21V48.05c0-0.54,0.11-0.98,0.34-1.32    c0.23-0.34,0.54-0.65,0.94-0.93c0.62-0.4,1.39-0.72,2.31-0.96C35.63,44.61,36.66,44.49,37.8,44.49z M37.86,55.93    c2.06,0,3.08-1.23,3.08-3.68c0-1.28-0.25-2.23-0.76-2.84c-0.51-0.62-1.24-0.93-2.2-0.93c-0.38,0-0.72,0.04-1.02,0.13    c-0.3,0.09-0.56,0.2-0.78,0.31v6.59c0.24,0.12,0.5,0.22,0.78,0.3C37.24,55.89,37.54,55.93,37.86,55.93z"
   id="path121" />
		<path
   d="M65.26,59.37c-0.22,0.06-0.56,0.12-1.03,0.18c-0.47,0.06-0.93,0.09-1.39,0.09c-0.46,0-0.86-0.03-1.21-0.1    c-0.35-0.07-0.64-0.19-0.88-0.37c-0.24-0.18-0.42-0.43-0.54-0.75c-0.12-0.32-0.18-0.74-0.18-1.26v-4.67h-5.75v6.89    c-0.22,0.06-0.56,0.12-1.03,0.18c-0.47,0.06-0.93,0.09-1.39,0.09c-0.46,0-0.86-0.03-1.21-0.1c-0.35-0.07-0.64-0.19-0.88-0.37    c-0.24-0.18-0.42-0.43-0.54-0.75c-0.12-0.32-0.18-0.74-0.18-1.26V41.34c0.22-0.04,0.57-0.09,1.05-0.16s0.94-0.1,1.38-0.1    c0.46,0,0.86,0.03,1.21,0.1c0.35,0.07,0.64,0.19,0.88,0.37c0.24,0.18,0.42,0.43,0.54,0.75c0.12,0.32,0.18,0.74,0.18,1.26v4.79    h5.75v-7.01c0.22-0.04,0.57-0.09,1.05-0.16s0.94-0.1,1.38-0.1c0.46,0,0.86,0.03,1.21,0.1c0.35,0.07,0.64,0.19,0.88,0.37    c0.24,0.18,0.42,0.43,0.54,0.75c0.12,0.32,0.18,0.74,0.18,1.26V59.37z"
   id="path123" />
	</g>
	<line
   class="st10"
   x1="77.65"
   y1="31.53"
   x2="77.65"
   y2="3.15"
   id="line127" />
	<polyline
   class="st10"
   points="86.19,22.28 77.76,34.08 69.11,22.28  "
   id="polyline129" />
</g>
<g
   id="ec_x5F_wert_1_"
   class="st0">
	<path
   class="st4"
   d="M35.93,31.89c-1.19,1.67-2.27,3.29-3.15,4.76c-4.01,6.7-10.16,18.38-6.1,29.68h0   c3.73,9.71,12.5,16.53,22.73,16.53c10.24,0,19.01-6.82,22.74-16.53"
   id="path132" />
	<path
   class="st4"
   d="M41.17,25.1c2.49-3.17,4.29-5.44,5.98-7.43c1.19-1.4,3.34-1.4,4.52,0c3.64,4.29,10.74,12.91,14.37,18.98   c4.01,6.7,10.16,18.38,6.1,29.68"
   id="path134" />
	<line
   class="st4"
   x1="38.64"
   y1="28.32"
   x2="38.14"
   y2="29"
   id="line136" />
	<g
   class="st5"
   id="g142">
		<path
   d="M33.66,44.45c0-0.91,0.26-1.62,0.79-2.15c0.53-0.53,1.24-0.79,2.15-0.79h10.44c0.15,0.23,0.28,0.54,0.4,0.92    c0.12,0.38,0.17,0.78,0.17,1.2c0,0.8-0.17,1.37-0.52,1.71c-0.35,0.34-0.81,0.51-1.38,0.51h-6.68v2.94h7.12    c0.15,0.23,0.28,0.53,0.4,0.9c0.12,0.37,0.17,0.77,0.17,1.19c0,0.8-0.17,1.37-0.51,1.71c-0.34,0.34-0.79,0.51-1.36,0.51h-5.82    v3.32h8.13c0.15,0.23,0.28,0.54,0.4,0.92c0.12,0.38,0.17,0.78,0.17,1.2c0,0.8-0.17,1.38-0.52,1.72s-0.81,0.52-1.38,0.52H36.6    c-0.91,0-1.62-0.26-2.15-0.79s-0.79-1.24-0.79-2.15V44.45z"
   id="path138" />
		<path
   d="M60.59,45.37c-1.63,0-2.87,0.5-3.73,1.49c-0.86,0.99-1.3,2.39-1.3,4.21c0,1.84,0.48,3.25,1.44,4.24    c0.96,0.99,2.25,1.49,3.88,1.49c0.86,0,1.6-0.12,2.2-0.35c0.6-0.23,1.18-0.5,1.72-0.79c0.36,0.3,0.64,0.65,0.84,1.06    c0.2,0.41,0.3,0.89,0.3,1.44c0,0.87-0.48,1.6-1.44,2.2c-0.96,0.6-2.42,0.9-4.38,0.9c-1.41,0-2.74-0.2-3.99-0.6    c-1.24-0.4-2.33-1.02-3.26-1.85c-0.93-0.83-1.66-1.89-2.2-3.17c-0.54-1.28-0.81-2.8-0.81-4.57c0-1.65,0.26-3.1,0.78-4.35    c0.52-1.25,1.22-2.31,2.12-3.18c0.9-0.86,1.95-1.52,3.15-1.96c1.2-0.44,2.49-0.66,3.86-0.66c1.94,0,3.45,0.32,4.51,0.95    c1.06,0.63,1.6,1.45,1.6,2.44c0,0.55-0.14,1.02-0.41,1.42c-0.27,0.4-0.59,0.72-0.95,0.95c-0.55-0.36-1.13-0.66-1.76-0.92    C62.14,45.49,61.42,45.37,60.59,45.37z"
   id="path140" />
	</g>
</g>
<g
   id="ec_x5F_wert_x5F_down"
   class="st0">
	<path
   class="st4"
   d="M35.93,31.89c-1.19,1.67-2.27,3.29-3.15,4.76c-4.01,6.7-10.16,18.38-6.1,29.68h0   c3.73,9.71,12.5,16.53,22.73,16.53c10.24,0,19.01-6.82,22.74-16.53"
   id="path145" />
	<path
   class="st4"
   d="M41.17,25.1c2.49-3.17,4.29-5.44,5.98-7.43c1.19-1.4,3.34-1.4,4.52,0c3.64,4.29,10.74,12.91,14.37,18.98   c4.01,6.7,10.16,18.38,6.1,29.68"
   id="path147" />
	<line
   class="st4"
   x1="38.64"
   y1="28.32"
   x2="38.14"
   y2="29"
   id="line149" />
	<g
   class="st5"
   id="g155">
		<path
   d="M33.66,44.45c0-0.91,0.26-1.62,0.79-2.15c0.53-0.53,1.24-0.79,2.15-0.79h10.44c0.15,0.23,0.28,0.54,0.4,0.92    c0.12,0.38,0.17,0.78,0.17,1.2c0,0.8-0.17,1.37-0.52,1.71c-0.35,0.34-0.81,0.51-1.38,0.51h-6.68v2.94h7.12    c0.15,0.23,0.28,0.53,0.4,0.9c0.12,0.37,0.17,0.77,0.17,1.19c0,0.8-0.17,1.37-0.51,1.71c-0.34,0.34-0.79,0.51-1.36,0.51h-5.82    v3.32h8.13c0.15,0.23,0.28,0.54,0.4,0.92c0.12,0.38,0.17,0.78,0.17,1.2c0,0.8-0.17,1.38-0.52,1.72s-0.81,0.52-1.38,0.52H36.6    c-0.91,0-1.62-0.26-2.15-0.79s-0.79-1.24-0.79-2.15V44.45z"
   id="path151" />
		<path
   d="M60.59,45.37c-1.63,0-2.87,0.5-3.73,1.49c-0.86,0.99-1.3,2.39-1.3,4.21c0,1.84,0.48,3.25,1.44,4.24    c0.96,0.99,2.25,1.49,3.88,1.49c0.86,0,1.6-0.12,2.2-0.35c0.6-0.23,1.18-0.5,1.72-0.79c0.36,0.3,0.64,0.65,0.84,1.06    c0.2,0.41,0.3,0.89,0.3,1.44c0,0.87-0.48,1.6-1.44,2.2c-0.96,0.6-2.42,0.9-4.38,0.9c-1.41,0-2.74-0.2-3.99-0.6    c-1.24-0.4-2.33-1.02-3.26-1.85c-0.93-0.83-1.66-1.89-2.2-3.17c-0.54-1.28-0.81-2.8-0.81-4.57c0-1.65,0.26-3.1,0.78-4.35    c0.52-1.25,1.22-2.31,2.12-3.18c0.9-0.86,1.95-1.52,3.15-1.96c1.2-0.44,2.49-0.66,3.86-0.66c1.94,0,3.45,0.32,4.51,0.95    c1.06,0.63,1.6,1.45,1.6,2.44c0,0.55-0.14,1.02-0.41,1.42c-0.27,0.4-0.59,0.72-0.95,0.95c-0.55-0.36-1.13-0.66-1.76-0.92    C62.14,45.49,61.42,45.37,60.59,45.37z"
   id="path153" />
	</g>
	<line
   class="st10"
   x1="77.65"
   y1="31.53"
   x2="77.65"
   y2="3.15"
   id="line157" />
	<polyline
   class="st10"
   points="86.19,22.28 77.76,34.08 69.11,22.28  "
   id="polyline159" />
</g>
<g
   id="ec_x5F_wert_x5F_up"
   class="st0">
	<path
   class="st4"
   d="M35.93,31.89c-1.19,1.67-2.27,3.29-3.15,4.76c-4.01,6.7-10.16,18.38-6.1,29.68h0   c3.73,9.71,12.5,16.53,22.73,16.53c10.24,0,19.01-6.82,22.74-16.53"
   id="path162" />
	<path
   class="st4"
   d="M41.17,25.1c2.49-3.17,4.29-5.44,5.98-7.43c1.19-1.4,3.34-1.4,4.52,0c3.64,4.29,10.74,12.91,14.37,18.98   c4.01,6.7,10.16,18.38,6.1,29.68"
   id="path164" />
	<line
   class="st4"
   x1="38.64"
   y1="28.32"
   x2="38.14"
   y2="29"
   id="line166" />
	<g
   class="st5"
   id="g172">
		<path
   d="M33.66,44.45c0-0.91,0.26-1.62,0.79-2.15c0.53-0.53,1.24-0.79,2.15-0.79h10.44c0.15,0.23,0.28,0.54,0.4,0.92    c0.12,0.38,0.17,0.78,0.17,1.2c0,0.8-0.17,1.37-0.52,1.71c-0.35,0.34-0.81,0.51-1.38,0.51h-6.68v2.94h7.12    c0.15,0.23,0.28,0.53,0.4,0.9c0.12,0.37,0.17,0.77,0.17,1.19c0,0.8-0.17,1.37-0.51,1.71c-0.34,0.34-0.79,0.51-1.36,0.51h-5.82    v3.32h8.13c0.15,0.23,0.28,0.54,0.4,0.92c0.12,0.38,0.17,0.78,0.17,1.2c0,0.8-0.17,1.38-0.52,1.72s-0.81,0.52-1.38,0.52H36.6    c-0.91,0-1.62-0.26-2.15-0.79s-0.79-1.24-0.79-2.15V44.45z"
   id="path168" />
		<path
   d="M60.59,45.37c-1.63,0-2.87,0.5-3.73,1.49c-0.86,0.99-1.3,2.39-1.3,4.21c0,1.84,0.48,3.25,1.44,4.24    c0.96,0.99,2.25,1.49,3.88,1.49c0.86,0,1.6-0.12,2.2-0.35c0.6-0.23,1.18-0.5,1.72-0.79c0.36,0.3,0.64,0.65,0.84,1.06    c0.2,0.41,0.3,0.89,0.3,1.44c0,0.87-0.48,1.6-1.44,2.2c-0.96,0.6-2.42,0.9-4.38,0.9c-1.41,0-2.74-0.2-3.99-0.6    c-1.24-0.4-2.33-1.02-3.26-1.85c-0.93-0.83-1.66-1.89-2.2-3.17c-0.54-1.28-0.81-2.8-0.81-4.57c0-1.65,0.26-3.1,0.78-4.35    c0.52-1.25,1.22-2.31,2.12-3.18c0.9-0.86,1.95-1.52,3.15-1.96c1.2-0.44,2.49-0.66,3.86-0.66c1.94,0,3.45,0.32,4.51,0.95    c1.06,0.63,1.6,1.45,1.6,2.44c0,0.55-0.14,1.02-0.41,1.42c-0.27,0.4-0.59,0.72-0.95,0.95c-0.55-0.36-1.13-0.66-1.76-0.92    C62.14,45.49,61.42,45.37,60.59,45.37z"
   id="path170" />
	</g>
	<line
   class="st10"
   x1="77.65"
   y1="5.7"
   x2="77.65"
   y2="34.08"
   id="line174" />
	<polyline
   class="st10"
   points="69.11,14.95 77.54,3.15 86.19,14.95  "
   id="polyline176" />
</g>
<g
   id="nährungslösungs_x5F_temp"
   class="st0">
	<path
   class="st10"
   d="M50.61,42.04v40.21c0,0.64-0.52,1.15-1.15,1.15H24.52c-0.64,0-1.15-0.52-1.15-1.15V42.04l8.3-10.19v-2.31   h-1.54v-5.97h6.85"
   id="path179" />
	<polyline
   class="st10"
   points="50.61,82.25 50.61,42.04 42.3,31.84 42.3,29.54 43.84,29.54 43.84,23.57 36.99,23.57  "
   id="polyline181" />
	<path
   class="st11"
   d="M32.82,44.91c0,0-0.97,3.34,3.14,6.26c1.45,1.03,2.78,2.48,3.09,2.91c-0.01,0.01-0.02,0.02-0.03,0.03   c-2.24,2.13-2.66,4.33-1.88,5.87c0.54,1.07,1.12,1.95,1.85,2.81c0.69-0.91,1.37-1.87,2.12-2.83c2.73-3.44,2.45-5.75,2.45-5.75   s-0.16,2.31-2.89,5.75c-0.53,0.67-1.02,1.34-1.51,2c-1.73-1.77-2.86-4.06,0.08-7.46c2.23-2.58,2.8-4.75,2.8-4.75   s4.98,2.06,3.33,8.23c-0.73,2.71-2.5,3.79-3.89,4.22c-0.16,0.26-0.33,0.54-0.51,0.82c-0.97,1.52-1.1,4.41-1.1,4.41h-1.99   c0,0,0.43-3.06-0.76-4.38c-2.06-2.29-3.03-4.26-3.96-6.03c1.37-1.8,1.33-2.59,1.26-3.17c0,0,0.01,0.85-1,2.02   c-0.18,0.21-0.35,0.41-0.51,0.62c0,0,0,0,0,0.01c-1.27-2.61-1.49-4.57-1.33-5.81c-0.1,0.77-0.29,1.67-0.01,3.02   c0.45,2.17,1.82,5.05,4.01,8.25c-1.9-0.25-6-1.33-6.96-5.85C26.76,47.4,32.82,44.91,32.82,44.91z"
   id="path183" />
	<path
   class="st1"
   d="M73.21,51.93V20.65c0-2.73-2.24-4.97-4.97-4.97h-0.09c-2.73,0-4.97,2.24-4.97,4.97v31.28   c-1.92,1.5-3.16,3.82-3.16,6.44c0,4.51,3.66,8.17,8.17,8.17c4.51,0,8.17-3.66,8.17-8.17C76.37,55.76,75.13,53.43,73.21,51.93z"
   id="path185" />
	<line
   class="st2"
   x1="68.2"
   y1="30.48"
   x2="68.2"
   y2="59.57"
   id="line187" />
	<path
   class="st3"
   d="M70.84,58.38c0-1.46-1.18-2.64-2.64-2.64c-1.46,0-2.64,1.18-2.64,2.64c0,1.46,1.18,2.64,2.64,2.64   C69.65,61.02,70.84,59.84,70.84,58.38"
   id="path189" />
	<line
   class="st4"
   x1="58.5"
   y1="20.67"
   x2="50.94"
   y2="20.67"
   id="line191" />
	<line
   class="st4"
   x1="58.5"
   y1="24.73"
   x2="54.1"
   y2="24.73"
   id="line193" />
	<line
   class="st4"
   x1="58.5"
   y1="28.79"
   x2="50.94"
   y2="28.79"
   id="line195" />
	<line
   class="st4"
   x1="58.5"
   y1="32.85"
   x2="54.1"
   y2="32.85"
   id="line197" />
</g>
<g
   id="nährungslösungs_x5F_temp_1_"
   class="st0">
	<path
   class="st4"
   d="M35.96,31.92c-1.19,1.67-2.27,3.29-3.15,4.75c-4,6.68-10.14,18.35-6.09,29.62h0   c3.72,9.69,12.47,16.5,22.69,16.5c10.21,0,18.97-6.81,22.69-16.5"
   id="path200" />
	<path
   class="st4"
   d="M35.96,31.92c3.74-5.27,9.51-12.2,11.19-14.19c1.18-1.39,3.33-1.39,4.52,0c3.63,4.28,10.72,12.88,14.34,18.94   c4,6.68,10.14,18.35,6.09,29.62"
   id="path202" />
	<g
   class="st8"
   id="g210">
		<g
   id="g208">
			<path
   class="st9"
   d="M40.74,49.36c-1.62,0-2.87-0.44-3.76-1.32c-0.89-0.88-1.34-1.99-1.34-3.34c0-1.39,0.46-2.51,1.39-3.39     c0.92-0.87,2.2-1.31,3.84-1.31c1.57,0,2.82,0.44,3.75,1.31c0.92,0.87,1.39,2,1.39,3.39c0,0.67-0.13,1.29-0.38,1.86     c-0.25,0.57-0.61,1.06-1.07,1.48s-1.02,0.75-1.67,0.98C42.23,49.24,41.51,49.36,40.74,49.36z M40.77,46.37     c0.44,0,0.8-0.15,1.09-0.44s0.43-0.7,0.43-1.23c0-0.5-0.13-0.91-0.38-1.21c-0.25-0.3-0.6-0.46-1.04-0.46     c-0.42,0-0.78,0.14-1.07,0.42c-0.29,0.28-0.44,0.7-0.44,1.24c0,0.53,0.13,0.93,0.38,1.23S40.33,46.37,40.77,46.37z"
   id="path204" />
			<path
   class="st9"
   d="M57.96,45.55c-1.62,0-2.86,0.49-3.72,1.48c-0.86,0.99-1.29,2.38-1.29,4.19c0,1.83,0.48,3.23,1.43,4.22     c0.96,0.99,2.24,1.48,3.86,1.48c0.86,0,1.59-0.11,2.19-0.35c0.6-0.23,1.17-0.49,1.72-0.79c0.36,0.29,0.63,0.65,0.84,1.05     c0.2,0.41,0.3,0.89,0.3,1.43c0,0.86-0.48,1.59-1.43,2.19c-0.95,0.6-2.41,0.9-4.36,0.9c-1.41,0-2.73-0.2-3.97-0.6     c-1.24-0.4-2.32-1.01-3.24-1.84c-0.92-0.83-1.65-1.88-2.19-3.15c-0.54-1.27-0.8-2.79-0.8-4.55c0-1.64,0.26-3.08,0.77-4.33     c0.51-1.25,1.22-2.3,2.11-3.17c0.89-0.86,1.94-1.51,3.13-1.95c1.2-0.44,2.48-0.66,3.84-0.66c1.93,0,3.43,0.32,4.49,0.94     c1.06,0.63,1.59,1.44,1.59,2.42c0,0.55-0.14,1.02-0.41,1.42c-0.27,0.4-0.59,0.71-0.94,0.94c-0.55-0.36-1.13-0.66-1.75-0.91     C59.5,45.67,58.78,45.55,57.96,45.55z"
   id="path206" />
		</g>
	</g>
</g>
<path
   style="fill:none;stroke:#000000;stroke-width:3;stroke-linecap:round;stroke-miterlimit:10"
   inkscape:connector-curvature="0"
   id="path213"
   d="m 35.96,31.92 c -1.19,1.67 -2.27,3.29 -3.15,4.75 -4,6.68 -10.14,18.35 -6.09,29.62 v 0 c 3.72,9.69 12.47,16.5 22.69,16.5 10.21,0 18.97,-6.81 22.69,-16.5"
   class="st12" /><path
   style="fill:none;stroke:#000000;stroke-width:3;stroke-linecap:round;stroke-miterlimit:10"
   inkscape:connector-curvature="0"
   id="path215"
   d="m 35.96,31.92 c 3.74,-5.27 9.51,-12.2 11.19,-14.19 1.18,-1.39 3.33,-1.39 4.52,0 3.63,4.28 10.72,12.88 14.34,18.94 4,6.68 10.14,18.35 6.09,29.62"
   class="st12" /><g
   style="enable-background:new"
   id="g223"
   class="st13">
		<g
   id="g221">
			<path
   style="fill:#010202"
   inkscape:connector-curvature="0"
   id="path217"
   d="m 40.74,49.36 c -1.62,0 -2.87,-0.44 -3.76,-1.32 -0.89,-0.88 -1.34,-1.99 -1.34,-3.34 0,-1.39 0.46,-2.51 1.39,-3.39 0.92,-0.87 2.2,-1.31 3.84,-1.31 1.57,0 2.82,0.44 3.75,1.31 0.92,0.87 1.39,2 1.39,3.39 0,0.67 -0.13,1.29 -0.38,1.86 -0.25,0.57 -0.61,1.06 -1.07,1.48 -0.46,0.42 -1.02,0.75 -1.67,0.98 -0.66,0.22 -1.38,0.34 -2.15,0.34 z m 0.03,-2.99 c 0.44,0 0.8,-0.15 1.09,-0.44 0.29,-0.29 0.43,-0.7 0.43,-1.23 0,-0.5 -0.13,-0.91 -0.38,-1.21 -0.25,-0.3 -0.6,-0.46 -1.04,-0.46 -0.42,0 -0.78,0.14 -1.07,0.42 -0.29,0.28 -0.44,0.7 -0.44,1.24 0,0.53 0.13,0.93 0.38,1.23 0.25,0.3 0.59,0.45 1.03,0.45 z"
   class="st9" />
			<path
   style="fill:#010202"
   inkscape:connector-curvature="0"
   id="path219"
   d="m 57.96,45.55 c -1.62,0 -2.86,0.49 -3.72,1.48 -0.86,0.99 -1.29,2.38 -1.29,4.19 0,1.83 0.48,3.23 1.43,4.22 0.96,0.99 2.24,1.48 3.86,1.48 0.86,0 1.59,-0.11 2.19,-0.35 0.6,-0.23 1.17,-0.49 1.72,-0.79 0.36,0.29 0.63,0.65 0.84,1.05 0.2,0.41 0.3,0.89 0.3,1.43 0,0.86 -0.48,1.59 -1.43,2.19 -0.95,0.6 -2.41,0.9 -4.36,0.9 -1.41,0 -2.73,-0.2 -3.97,-0.6 -1.24,-0.4 -2.32,-1.01 -3.24,-1.84 -0.92,-0.83 -1.65,-1.88 -2.19,-3.15 -0.54,-1.27 -0.8,-2.79 -0.8,-4.55 0,-1.64 0.26,-3.08 0.77,-4.33 0.51,-1.25 1.22,-2.3 2.11,-3.17 0.89,-0.86 1.94,-1.51 3.13,-1.95 1.2,-0.44 2.48,-0.66 3.84,-0.66 1.93,0 3.43,0.32 4.49,0.94 1.06,0.63 1.59,1.44 1.59,2.42 0,0.55 -0.14,1.02 -0.41,1.42 -0.27,0.4 -0.59,0.71 -0.94,0.94 -0.55,-0.36 -1.13,-0.66 -1.75,-0.91 -0.63,-0.24 -1.35,-0.36 -2.17,-0.36 z"
   class="st9" />
		</g>
	</g>
<g
   id="tag"
   class="st0">
	<path
   class="st4"
   d="M71.52,49.69c0-11.87-9.63-21.5-21.5-21.5c-11.87,0-21.5,9.62-21.5,21.5c0,11.87,9.63,21.5,21.5,21.5   C61.89,71.19,71.52,61.56,71.52,49.69z"
   id="path230" />
	<line
   class="st4"
   x1="50.02"
   y1="20.15"
   x2="50.02"
   y2="4.23"
   id="line232" />
	<line
   class="st4"
   x1="29.14"
   y1="28.8"
   x2="17.87"
   y2="17.54"
   id="line234" />
	<line
   class="st4"
   x1="20.48"
   y1="49.69"
   x2="4.56"
   y2="49.69"
   id="line236" />
	<line
   class="st4"
   x1="29.14"
   y1="70.58"
   x2="17.87"
   y2="81.84"
   id="line238" />
	<line
   class="st4"
   x1="70.91"
   y1="70.58"
   x2="82.17"
   y2="81.84"
   id="line240" />
	<line
   class="st4"
   x1="50.02"
   y1="79.23"
   x2="50.02"
   y2="95.15"
   id="line242" />
	<line
   class="st4"
   x1="79.56"
   y1="49.69"
   x2="95.49"
   y2="49.69"
   id="line244" />
	<line
   class="st4"
   x1="70.91"
   y1="28.8"
   x2="82.17"
   y2="17.54"
   id="line246" />
</g>
<g
   id="nacht"
   class="st0">
	<path
   class="st15"
   d="M93.85,79.01c-8.88,10.86-22.38,17.78-37.5,17.78c-26.75,0-48.43-21.68-48.43-48.43   c0-21.99,14.65-40.56,34.73-46.47c-6.83,8.35-10.93,19.02-10.93,30.65c0,26.75,21.68,48.43,48.43,48.43   C84.91,80.98,89.51,80.29,93.85,79.01z"
   id="path249" />
</g>
<g
   id="tag_x2F_nacht"
   class="st0">
	<path
   class="st4"
   d="M43.64,35.05c0-4.68-3.79-8.47-8.47-8.47c-4.68,0-8.47,3.79-8.47,8.47c0,4.68,3.79,8.47,8.47,8.47   C39.85,43.52,43.64,39.73,43.64,35.05z"
   id="path252" />
	<line
   class="st4"
   x1="35.17"
   y1="23.41"
   x2="35.17"
   y2="17.13"
   id="line254" />
	<line
   class="st4"
   x1="26.94"
   y1="26.82"
   x2="22.5"
   y2="22.38"
   id="line256" />
	<line
   class="st4"
   x1="23.53"
   y1="35.05"
   x2="17.25"
   y2="35.05"
   id="line258" />
	<line
   class="st4"
   x1="26.94"
   y1="43.28"
   x2="22.5"
   y2="47.72"
   id="line260" />
	<line
   class="st4"
   x1="43.4"
   y1="43.28"
   x2="47.84"
   y2="47.72"
   id="line262" />
	<line
   class="st4"
   x1="35.17"
   y1="46.69"
   x2="35.17"
   y2="52.96"
   id="line264" />
	<line
   class="st4"
   x1="46.81"
   y1="35.05"
   x2="53.08"
   y2="35.05"
   id="line266" />
	<line
   class="st4"
   x1="43.4"
   y1="26.82"
   x2="47.84"
   y2="22.38"
   id="line268" />
	<path
   class="st15"
   d="M82.32,75.96c-3.39,4.14-8.54,6.79-14.31,6.79c-10.21,0-18.48-8.27-18.48-18.48   c0-8.39,5.59-15.47,13.25-17.73c-2.61,3.19-4.17,7.26-4.17,11.69c0,10.21,8.27,18.48,18.48,18.48   C78.91,76.71,80.67,76.44,82.32,75.96z"
   id="path270" />
	<line
   class="st15"
   x1="17.18"
   y1="82.43"
   x2="82.33"
   y2="17.75"
   id="line272" />
</g>
<g
   id="befeuchter"
   class="st0">
	<path
   class="st11"
   d="M37.21,83.58c-7.05-0.01-12.88-5.51-13.29-12.55h-6.76C8.53,70.99,1.56,63.97,1.6,55.35   c0.03-7.89,5.94-14.52,13.77-15.45c0-0.46-0.05-0.9-0.05-1.34c-0.03-12.7,10.24-23.03,22.94-23.06c9.31-0.02,17.72,5.57,21.3,14.18   c6.41-4.41,15.18-2.79,19.6,3.62c1.33,1.93,2.16,4.16,2.4,6.49h0.41c8.63,0,15.62,6.99,15.62,15.62c0,8.63-6.99,15.62-15.62,15.62   c0,0-0.01,0-0.01,0H50.56C50.14,78.09,44.28,83.59,37.21,83.58z M38.31,18.58c-11.05,0-20,8.95-20,20c0.01,0.85,0.07,1.7,0.18,2.55   c0.06,0.43-0.07,0.86-0.35,1.18c-0.28,0.32-0.69,0.51-1.12,0.51c-6.97,0.23-12.43,6.06-12.2,13.03c0.22,6.7,5.63,12.05,12.33,12.2   h8.27c0.41,0,0.81,0.17,1.09,0.47c0.27,0.29,0.42,0.67,0.42,1.06v0.19c0,0.14,0,0.29,0,0.44c0,5.7,4.62,10.32,10.32,10.32   s10.32-4.62,10.32-10.32c0-0.15,0-0.3,0-0.44v-0.19c-0.06-0.82,0.57-1.53,1.39-1.59c0.04,0,0.08,0,0.11,0h33   c6.97,0,12.62-5.64,12.63-12.61c0-6.97-5.64-12.62-12.61-12.63c0,0-0.01,0-0.01,0h-1.95c-0.83,0-1.5-0.67-1.5-1.5   c-0.01-6.12-4.98-11.09-11.1-11.08c-2.85,0-5.6,1.11-7.66,3.08c-0.38,0.35-0.91,0.49-1.41,0.36c-0.5-0.13-0.9-0.5-1.06-1   C54.81,24.24,47.06,18.54,38.31,18.58z"
   id="path275" />
	<g
   class="st5"
   id="g279">
		<path
   d="M47.43,45.48c0,1.64-0.49,2.92-1.48,3.84c-0.99,0.92-2.26,1.38-3.81,1.38c-1.58,0-2.85-0.46-3.83-1.38    c-0.98-0.92-1.46-2.2-1.46-3.84c0-1.62,0.49-2.89,1.46-3.81c0.97-0.92,2.25-1.38,3.83-1.38c1.55,0,2.83,0.46,3.81,1.38    C46.93,42.59,47.43,43.86,47.43,45.48z M40.82,45.48c0,0.66,0.13,1.14,0.38,1.46c0.25,0.32,0.56,0.48,0.94,0.48    c0.37,0,0.68-0.16,0.94-0.48c0.25-0.32,0.38-0.8,0.38-1.46c0-0.64-0.13-1.11-0.38-1.41c-0.25-0.31-0.56-0.46-0.94-0.46    c-0.37,0-0.68,0.15-0.94,0.46C40.95,44.38,40.82,44.85,40.82,45.48z M53.57,40.26c0.74,0.11,1.41,0.31,1.99,0.61    c0.58,0.3,0.89,0.7,0.94,1.2c0,0.35-0.09,0.71-0.26,1.08c-0.18,0.37-0.41,0.76-0.69,1.15L44.17,60.76    c-0.7-0.11-1.29-0.31-1.76-0.61c-0.47-0.3-0.73-0.7-0.77-1.2c0-0.35,0.03-0.69,0.08-1.03c0.05-0.34,0.22-0.73,0.51-1.17    L53.57,40.26z M61.19,55.57c0,1.64-0.49,2.92-1.48,3.84c-0.99,0.92-2.26,1.38-3.81,1.38c-1.58,0-2.85-0.46-3.83-1.38    c-0.97-0.92-1.46-2.2-1.46-3.84c0-1.62,0.49-2.89,1.46-3.81c0.98-0.92,2.25-1.38,3.83-1.38c1.56,0,2.82,0.46,3.81,1.38    C60.7,52.68,61.19,53.95,61.19,55.57z M54.59,55.57c0,0.66,0.13,1.14,0.38,1.46c0.25,0.32,0.56,0.48,0.94,0.48    c0.37,0,0.68-0.16,0.94-0.48c0.25-0.32,0.38-0.8,0.38-1.46c0-0.63-0.13-1.11-0.38-1.41c-0.25-0.31-0.56-0.46-0.94-0.46    c-0.37,0-0.68,0.15-0.94,0.46C54.72,54.46,54.59,54.93,54.59,55.57z"
   id="path277" />
	</g>
	<line
   class="st10"
   x1="84.47"
   y1="5.04"
   x2="84.47"
   y2="33.41"
   id="line281" />
	<polyline
   class="st10"
   points="75.93,14.28 84.36,2.49 93.01,14.28  "
   id="polyline283" />
</g>
<g
   id="entfeuchter_1_"
   class="st0">
	<path
   class="st11"
   d="M37.21,83.58c-7.05-0.01-12.88-5.51-13.29-12.55h-6.76C8.53,70.99,1.56,63.97,1.6,55.35   c0.03-7.89,5.94-14.52,13.77-15.45c0-0.46-0.05-0.9-0.05-1.34c-0.03-12.7,10.24-23.03,22.94-23.06c9.31-0.02,17.72,5.57,21.3,14.18   c6.41-4.41,15.18-2.79,19.6,3.62c1.33,1.93,2.16,4.16,2.4,6.49h0.41c8.63,0,15.62,6.99,15.62,15.62c0,8.63-6.99,15.62-15.62,15.62   c0,0-0.01,0-0.01,0H50.56C50.14,78.09,44.28,83.59,37.21,83.58z M38.31,18.58c-11.05,0-20,8.95-20,20c0.01,0.85,0.07,1.7,0.18,2.55   c0.06,0.43-0.07,0.86-0.35,1.18c-0.28,0.32-0.69,0.51-1.12,0.51c-6.97,0.23-12.43,6.06-12.2,13.03c0.22,6.7,5.63,12.05,12.33,12.2   h8.27c0.41,0,0.81,0.17,1.09,0.47c0.27,0.29,0.42,0.67,0.42,1.06v0.19c0,0.14,0,0.29,0,0.44c0,5.7,4.62,10.32,10.32,10.32   s10.32-4.62,10.32-10.32c0-0.15,0-0.3,0-0.44v-0.19c-0.06-0.82,0.57-1.53,1.39-1.59c0.04,0,0.08,0,0.11,0h33   c6.97,0,12.62-5.64,12.63-12.61c0-6.97-5.64-12.62-12.61-12.63c0,0-0.01,0-0.01,0h-1.95c-0.83,0-1.5-0.67-1.5-1.5   c-0.01-6.12-4.98-11.09-11.1-11.08c-2.85,0-5.6,1.11-7.66,3.08c-0.38,0.35-0.91,0.49-1.41,0.36c-0.5-0.13-0.9-0.5-1.06-1   C54.81,24.24,47.06,18.54,38.31,18.58z"
   id="path286" />
	<g
   class="st5"
   id="g290">
		<path
   d="M47.43,45.48c0,1.64-0.49,2.92-1.48,3.84c-0.99,0.92-2.26,1.38-3.81,1.38c-1.58,0-2.85-0.46-3.83-1.38    c-0.98-0.92-1.46-2.2-1.46-3.84c0-1.62,0.49-2.89,1.46-3.81c0.97-0.92,2.25-1.38,3.83-1.38c1.55,0,2.83,0.46,3.81,1.38    C46.93,42.59,47.43,43.86,47.43,45.48z M40.82,45.48c0,0.66,0.13,1.14,0.38,1.46c0.25,0.32,0.56,0.48,0.94,0.48    c0.37,0,0.68-0.16,0.94-0.48c0.25-0.32,0.38-0.8,0.38-1.46c0-0.64-0.13-1.11-0.38-1.41c-0.25-0.31-0.56-0.46-0.94-0.46    c-0.37,0-0.68,0.15-0.94,0.46C40.95,44.38,40.82,44.85,40.82,45.48z M53.57,40.26c0.74,0.11,1.41,0.31,1.99,0.61    c0.58,0.3,0.89,0.7,0.94,1.2c0,0.35-0.09,0.71-0.26,1.08c-0.18,0.37-0.41,0.76-0.69,1.15L44.17,60.76    c-0.7-0.11-1.29-0.31-1.76-0.61c-0.47-0.3-0.73-0.7-0.77-1.2c0-0.35,0.03-0.69,0.08-1.03c0.05-0.34,0.22-0.73,0.51-1.17    L53.57,40.26z M61.19,55.57c0,1.64-0.49,2.92-1.48,3.84c-0.99,0.92-2.26,1.38-3.81,1.38c-1.58,0-2.85-0.46-3.83-1.38    c-0.97-0.92-1.46-2.2-1.46-3.84c0-1.62,0.49-2.89,1.46-3.81c0.98-0.92,2.25-1.38,3.83-1.38c1.56,0,2.82,0.46,3.81,1.38    C60.7,52.68,61.19,53.95,61.19,55.57z M54.59,55.57c0,0.66,0.13,1.14,0.38,1.46c0.25,0.32,0.56,0.48,0.94,0.48    c0.37,0,0.68-0.16,0.94-0.48c0.25-0.32,0.38-0.8,0.38-1.46c0-0.63-0.13-1.11-0.38-1.41c-0.25-0.31-0.56-0.46-0.94-0.46    c-0.37,0-0.68,0.15-0.94,0.46C54.72,54.46,54.59,54.93,54.59,55.57z"
   id="path288" />
	</g>
	<line
   class="st10"
   x1="84.47"
   y1="30.86"
   x2="84.47"
   y2="2.49"
   id="line292" />
	<polyline
   class="st10"
   points="93.01,21.62 84.58,33.41 75.93,21.62  "
   id="polyline294" />
</g>
<g
   id="lichtstärke"
   class="st0">
	<path
   class="st1"
   d="M43.25,25.06v4.02c0,1.52-0.59,2.98-1.68,3.98c-2.62,2.39-4.27,5.91-4.27,9.84c0,7.44,5.93,13.42,13.1,13.02   c6.41-0.35,11.55-5.87,11.76-12.6c0.12-4.05-1.52-7.71-4.18-10.19c-1.11-1.03-1.76-2.5-1.76-4.05v-4.02c0-1.5-1.16-2.72-2.6-2.72   h-7.77C44.41,22.34,43.25,23.56,43.25,25.06z"
   id="path297" />
	<path
   class="st1"
   d="M51.84,22.34c0.05-0.18,0.07-0.37,0.07-0.56c0-1.23-0.95-2.23-2.13-2.23c-1.18,0-2.13,1-2.13,2.23   c0,0.2,0.03,0.38,0.07,0.56H51.84z"
   id="path299" />
	<line
   class="st1"
   x1="56.27"
   y1="29.08"
   x2="43.3"
   y2="29.08"
   id="line301" />
	<line
   class="st1"
   x1="43.3"
   y1="25.7"
   x2="56.27"
   y2="25.7"
   id="line303" />
	<path
   class="st4"
   d="M49.78,52.34c5,0,9.05-4.24,9.05-9.48"
   id="path305" />
	<line
   class="st4"
   x1="49.5"
   y1="61.54"
   x2="49.5"
   y2="83.57"
   id="line307" />
	<line
   class="st4"
   x1="61.95"
   y1="56.75"
   x2="74.58"
   y2="69.37"
   id="line309" />
	<line
   class="st4"
   x1="36.67"
   y1="55.44"
   x2="24.04"
   y2="68.07"
   id="line311" />
	<line
   class="st4"
   x1="67.02"
   y1="42.62"
   x2="79.92"
   y2="42.62"
   id="line313" />
	<line
   class="st4"
   x1="20.15"
   y1="42.62"
   x2="33.05"
   y2="42.62"
   id="line315" />
	<g
   class="st5"
   id="g319">
		<path
   d="M72.32,19.97c0,1.29-0.39,2.29-1.16,3.02c-0.77,0.72-1.77,1.08-2.99,1.08c-1.24,0-2.24-0.36-3-1.08    c-0.76-0.72-1.15-1.73-1.15-3.02c0-1.27,0.38-2.27,1.15-2.99c0.76-0.72,1.76-1.08,3-1.08c1.22,0,2.22,0.36,2.99,1.08    C71.93,17.71,72.32,18.7,72.32,19.97z M67.14,19.97c0,0.52,0.1,0.9,0.3,1.15c0.2,0.25,0.44,0.37,0.73,0.37s0.54-0.12,0.73-0.37    c0.2-0.25,0.3-0.63,0.3-1.15c0-0.5-0.1-0.87-0.3-1.11c-0.2-0.24-0.44-0.36-0.73-0.36s-0.54,0.12-0.73,0.36    C67.24,19.11,67.14,19.47,67.14,19.97z M77.14,15.88c0.58,0.09,1.1,0.24,1.56,0.48c0.45,0.23,0.7,0.55,0.73,0.94    c0,0.27-0.07,0.56-0.21,0.85c-0.14,0.29-0.32,0.59-0.54,0.9l-8.92,12.91c-0.55-0.09-1.01-0.24-1.38-0.48    c-0.37-0.23-0.57-0.55-0.61-0.94c0-0.27,0.02-0.55,0.06-0.81c0.04-0.27,0.18-0.57,0.4-0.91L77.14,15.88z M83.12,27.88    c0,1.29-0.39,2.29-1.16,3.01c-0.77,0.72-1.77,1.08-2.99,1.08c-1.24,0-2.24-0.36-3-1.08c-0.76-0.72-1.15-1.73-1.15-3.01    c0-1.27,0.38-2.27,1.15-2.99c0.76-0.72,1.77-1.08,3-1.08c1.22,0,2.22,0.36,2.99,1.08C82.73,25.62,83.12,26.61,83.12,27.88z     M77.94,27.88c0,0.52,0.1,0.9,0.3,1.15c0.2,0.25,0.44,0.37,0.73,0.37c0.29,0,0.54-0.12,0.73-0.37c0.2-0.25,0.3-0.63,0.3-1.15    c0-0.5-0.1-0.87-0.3-1.11c-0.2-0.24-0.44-0.36-0.73-0.36c-0.29,0-0.54,0.12-0.73,0.36C78.04,27.02,77.94,27.39,77.94,27.88z"
   id="path317" />
	</g>
</g>
<g
   id="lüfterausgang"
   class="st0">
	
		<ellipse
   transform="matrix(0.0139 -0.9999 0.9999 0.0139 -15.464 82.5886)"
   class="st16"
   cx="34.14"
   cy="49.13"
   rx="32.64"
   ry="32.64"
   id="ellipse322" />
	<g
   class="st5"
   id="g332">
		<path
   class="st12"
   d="M29.14,45.48c-2.13-1.68-4.35-3.64-5.35-5.16c-2.48-3.8-2.03-6.46-4.59-8.11c-2.99-1.93-6.61-0.5-8.04,1.54    c-3.7,5.31-5.79,13.51-3.72,19.2c1.13,3.09,3.73,4.54,8.2,2.91c1.94-0.71,8.01-2.92,12.68-4.61"
   id="path324" />
		<path
   class="st12"
   d="M33.47,55.29c-0.39,2.69-0.97,5.59-1.79,7.21c-2.05,4.04-4.58,4.99-4.73,8.03    c-0.17,3.56,2.87,5.98,5.35,6.19c6.45,0.55,14.6-1.74,18.49-6.38c2.12-2.52,2.06-5.5-1.58-8.55c-1.58-1.32-6.53-5.48-10.33-8.67"
   id="path326" />
		<path
   class="st12"
   d="M39.8,46.63c2.52-1,5.33-1.95,7.14-2.05c4.53-0.25,6.61,1.47,9.32,0.08c3.17-1.63,3.74-5.48,2.69-7.73    c-2.75-5.86-8.81-11.77-14.77-12.82c-3.24-0.57-5.79,0.96-6.62,5.65c-0.36,2.03-1.48,8.4-2.34,13.28"
   id="path328" />
		<path
   class="st17"
   d="M39.94,49.14c0-3.21-2.6-5.81-5.81-5.81c-3.21,0-5.81,2.6-5.81,5.81c0,3.21,2.6,5.8,5.81,5.8    C37.35,54.94,39.94,52.34,39.94,49.14z"
   id="path330" />
	</g>
</g>
<g
   id="lüfterdrehzahl_1_"
   class="st0">
	
		<ellipse
   transform="matrix(0.0139 -0.9999 0.9999 0.0139 -15.464 82.5886)"
   class="st16"
   cx="34.14"
   cy="49.13"
   rx="32.64"
   ry="32.64"
   id="ellipse335" />
	<g
   class="st5"
   id="g345">
		<path
   class="st12"
   d="M29.14,45.48c-2.13-1.68-4.35-3.64-5.35-5.16c-2.48-3.8-2.03-6.46-4.59-8.11c-2.99-1.93-6.61-0.5-8.04,1.54    c-3.7,5.31-5.79,13.51-3.72,19.2c1.13,3.09,3.73,4.54,8.2,2.91c1.94-0.71,8.01-2.92,12.68-4.61"
   id="path337" />
		<path
   class="st12"
   d="M33.47,55.29c-0.39,2.69-0.97,5.59-1.79,7.21c-2.05,4.04-4.58,4.99-4.73,8.03    c-0.17,3.56,2.87,5.98,5.35,6.19c6.45,0.55,14.6-1.74,18.49-6.38c2.12-2.52,2.06-5.5-1.58-8.55c-1.58-1.32-6.53-5.48-10.33-8.67"
   id="path339" />
		<path
   class="st12"
   d="M39.8,46.63c2.52-1,5.33-1.95,7.14-2.05c4.53-0.25,6.61,1.47,9.32,0.08c3.17-1.63,3.74-5.48,2.69-7.73    c-2.75-5.86-8.81-11.77-14.77-12.82c-3.24-0.57-5.79,0.96-6.62,5.65c-0.36,2.03-1.48,8.4-2.34,13.28"
   id="path341" />
		<path
   class="st17"
   d="M39.94,49.14c0-3.21-2.6-5.81-5.81-5.81c-3.21,0-5.81,2.6-5.81,5.81c0,3.21,2.6,5.8,5.81,5.8    C37.35,54.94,39.94,52.34,39.94,49.14z"
   id="path343" />
	</g>
	<line
   class="st4"
   x1="74.31"
   y1="42.93"
   x2="85.06"
   y2="41.74"
   id="line347" />
	<path
   class="st1"
   d="M74.04,42.85c-0.2-1.79-1.81-3.08-3.61-2.89c-1.79,0.2-3.09,1.81-2.89,3.61c0.2,1.79,1.81,3.09,3.61,2.89   C72.94,46.25,74.24,44.64,74.04,42.85z"
   id="path349" />
	<line
   class="st4"
   x1="90.59"
   y1="42.94"
   x2="96.71"
   y2="42.94"
   id="line351" />
	<line
   class="st4"
   x1="87"
   y1="33.06"
   x2="92.16"
   y2="30.09"
   id="line353" />
	<line
   class="st4"
   x1="79.54"
   y1="25.65"
   x2="82.52"
   y2="20.5"
   id="line355" />
	<line
   class="st4"
   x1="69.38"
   y1="22.97"
   x2="69.38"
   y2="17.01"
   id="line357" />
	<line
   class="st4"
   x1="59.24"
   y1="25.72"
   x2="56.26"
   y2="20.56"
   id="line359" />
	<path
   class="st4"
   d="M89.21,47.9c0.35-1.48,0.54-3.04,0.54-4.63c0-0.02,0-0.04,0-0.06c-0.04-11.19-9.11-20.24-20.31-20.24   c-0.02,0-0.04,0-0.06,0c-3.72,0.01-7.19,0.99-10.16,2.71"
   id="path361" />
</g>
<g
   id="dosierung_x5F_ec"
   class="st0">
	<g
   id="FURW2H.tif"
   class="st5">
		<g
   id="g368">
			<path
   d="M67.03,4.15c0.03-0.05,0.07-0.1,0.09-0.16c0.28-0.64,0.73-1.13,1.38-1.4c1.14-0.48,2.42-0.13,3.18,0.87     c0.57,0.74,1.12,1.49,1.69,2.26c0.48-0.36,0.94-0.71,1.4-1.06c0.5-0.38,0.82-0.34,1.19,0.16c0.36,0.47,0.71,0.94,1.06,1.41     c0.36,0.48,0.32,0.8-0.17,1.17c-0.37,0.28-0.75,0.55-1.21,0.89c0.13,0.13,0.24,0.2,0.32,0.3c2.02,2.69,4.03,5.38,6.05,8.06     c2.36,3.13,4.01,6.6,4.93,10.42c0.08,0.32,0.09,0.62-0.2,0.85c-0.3,0.23-0.59,0.15-0.89-0.02c-3.2-1.83-5.96-4.19-8.2-7.12     c-2.19-2.86-4.33-5.76-6.5-8.65c-0.07-0.09-0.14-0.18-0.24-0.3c-0.39,0.3-0.77,0.6-1.16,0.89c-0.43,0.32-0.78,0.27-1.1-0.16     c-0.36-0.47-0.71-0.94-1.06-1.41c-0.4-0.54-0.36-0.83,0.17-1.24c0.46-0.35,0.92-0.69,1.39-1.04c-0.42-0.55-0.8-1.08-1.2-1.59     c-0.51-0.65-0.99-1.31-1.08-2.17C66.94,4.78,66.98,4.46,67.03,4.15z M75.64,15.87c1.44,1.86,2.83,3.76,4.34,5.57     c1.43,1.72,3.16,3.12,5.03,4.35c0.06,0.04,0.13,0.08,0.26,0.15c-0.05-0.17-0.08-0.28-0.11-0.4c-0.93-2.95-2.36-5.62-4.18-8.12     c-0.55-0.76-1.14-1.18-2.09-1.24c-0.99-0.05-1.97-0.26-2.96-0.4c-0.1-0.01-0.2-0.02-0.33-0.03     C75.62,15.82,75.62,15.85,75.64,15.87z M72.24,10.86c-0.07,0.05-0.13,0.11-0.22,0.19c0.37,0.48,0.73,0.96,1.08,1.43     c0.39,0.52,0.78,1.05,1.18,1.56c0.07,0.09,0.19,0.18,0.3,0.2c1.43,0.21,2.86,0.41,4.28,0.62c0.03,0,0.06,0,0.05,0     c-1.43-1.9-2.87-3.82-4.32-5.76C73.84,9.66,73.04,10.26,72.24,10.86z M72.3,6.46c-0.16-0.21-0.35-0.43-0.52-0.65     c-0.4-0.53-0.79-1.07-1.2-1.59c-0.44-0.56-1.25-0.67-1.81-0.27c-0.55,0.4-0.7,1.2-0.29,1.77c0.56,0.78,1.15,1.54,1.73,2.3     C70.91,7.5,71.58,7,72.3,6.46z M69.4,11.25c2.06-1.55,4.14-3.1,6.21-4.65c-0.13-0.17-0.27-0.37-0.4-0.54     c-2.06,1.55-4.13,3.1-6.22,4.67C69.12,10.9,69.27,11.09,69.4,11.25z"
   id="path364" />
			<path
   d="M84.35,37.7c-0.05-0.03-0.1-0.07-0.16-0.09c-1.76-0.66-2.59-2.66-1.77-4.34c0.79-1.61,1.96-2.95,3.15-4.27     c0.3-0.34,0.87-0.25,1.06,0.15c0.75,1.55,1.46,3.12,1.8,4.82c0.28,1.4-0.27,2.69-1.48,3.36c-0.48,0.26-1.06,0.35-1.59,0.51     C85.03,37.8,84.69,37.75,84.35,37.7z M83.57,33.95c-0.32,0.67-0.12,1.49,0.44,2.02c0.59,0.55,1.45,0.67,2.17,0.3     c0.68-0.35,1.09-1.09,0.98-1.82c-0.21-1.31-0.76-2.5-1.28-3.79C85,31.74,84.14,32.74,83.57,33.95z"
   id="path366" />
		</g>
	</g>
	<path
   class="st4"
   d="M35.7,30.6c-1.21,1.71-2.32,3.36-3.22,4.86c-4.09,6.84-10.37,18.76-6.23,30.29h0   c3.8,9.91,12.76,16.87,23.21,16.87c10.45,0,19.41-6.96,23.21-16.87"
   id="path371" />
	<path
   class="st4"
   d="M40.41,24.34c2.54-3.23,5.02-6.22,6.74-8.25c1.21-1.43,3.41-1.43,4.62,0c3.71,4.38,10.96,13.18,14.67,19.37   c4.09,6.84,10.37,18.76,6.23,30.29"
   id="path373" />
	<line
   class="st4"
   x1="38.47"
   y1="26.96"
   x2="37.95"
   y2="27.66"
   id="line375" />
	<g
   class="st5"
   id="g381">
		<path
   d="M33.01,44.78c0-0.89,0.26-1.59,0.77-2.1c0.52-0.51,1.22-0.77,2.1-0.77h10.21c0.14,0.23,0.27,0.53,0.39,0.9    s0.17,0.76,0.17,1.18c0,0.78-0.17,1.34-0.51,1.67c-0.34,0.33-0.79,0.5-1.35,0.5h-6.53v2.88h6.96c0.14,0.23,0.27,0.52,0.39,0.88    c0.11,0.36,0.17,0.75,0.17,1.16c0,0.78-0.17,1.34-0.49,1.67c-0.33,0.33-0.77,0.5-1.33,0.5h-5.69v3.25h7.95    c0.14,0.23,0.27,0.53,0.39,0.9c0.11,0.37,0.17,0.76,0.17,1.17c0,0.78-0.17,1.35-0.51,1.69c-0.34,0.34-0.79,0.51-1.35,0.51h-9.03    c-0.89,0-1.59-0.26-2.1-0.77c-0.52-0.52-0.77-1.22-0.77-2.1V44.78z"
   id="path377" />
		<path
   d="M59.33,45.68c-1.59,0-2.8,0.48-3.65,1.45c-0.85,0.97-1.27,2.34-1.27,4.12c0,1.79,0.47,3.18,1.41,4.15    c0.94,0.97,2.2,1.45,3.79,1.45c0.85,0,1.56-0.11,2.15-0.34c0.59-0.23,1.15-0.48,1.69-0.77c0.35,0.29,0.62,0.63,0.82,1.04    c0.2,0.4,0.29,0.87,0.29,1.41c0,0.85-0.47,1.56-1.41,2.15c-0.94,0.59-2.37,0.88-4.29,0.88c-1.38,0-2.68-0.2-3.9-0.59    c-1.22-0.39-2.28-0.99-3.19-1.81c-0.91-0.81-1.62-1.84-2.15-3.09c-0.53-1.25-0.79-2.74-0.79-4.47c0-1.61,0.25-3.03,0.76-4.25    c0.51-1.23,1.2-2.26,2.07-3.11c0.88-0.85,1.9-1.49,3.08-1.92c1.18-0.43,2.43-0.65,3.77-0.65c1.9,0,3.37,0.31,4.41,0.93    s1.56,1.41,1.56,2.38c0,0.54-0.14,1-0.4,1.39s-0.58,0.7-0.93,0.93c-0.54-0.35-1.11-0.65-1.72-0.9    C60.84,45.8,60.14,45.68,59.33,45.68z"
   id="path379" />
	</g>
</g>
<g
   id="dosierung_x5F_ec_x5F_up_1_"
   class="st0">
	<g
   id="FURW2H.tif_6_"
   class="st5">
		<g
   id="g388">
			<path
   d="M67.03,4.15c0.03-0.05,0.07-0.1,0.09-0.16c0.28-0.64,0.73-1.13,1.38-1.4c1.14-0.48,2.42-0.13,3.18,0.87     c0.57,0.74,1.12,1.49,1.69,2.26c0.48-0.36,0.94-0.71,1.4-1.06c0.5-0.38,0.82-0.34,1.19,0.16c0.36,0.47,0.71,0.94,1.06,1.41     c0.36,0.48,0.32,0.8-0.17,1.17c-0.37,0.28-0.75,0.55-1.21,0.89c0.13,0.13,0.24,0.2,0.32,0.3c2.02,2.69,4.03,5.38,6.05,8.06     c2.36,3.13,4.01,6.6,4.93,10.42c0.08,0.32,0.09,0.62-0.2,0.85c-0.3,0.23-0.59,0.15-0.89-0.02c-3.2-1.83-5.96-4.19-8.2-7.12     c-2.19-2.86-4.33-5.76-6.5-8.65c-0.07-0.09-0.14-0.18-0.24-0.3c-0.39,0.3-0.77,0.6-1.16,0.89c-0.43,0.32-0.78,0.27-1.1-0.16     c-0.36-0.47-0.71-0.94-1.06-1.41c-0.4-0.54-0.36-0.83,0.17-1.24c0.46-0.35,0.92-0.69,1.39-1.04c-0.42-0.55-0.8-1.08-1.2-1.59     c-0.51-0.65-0.99-1.31-1.08-2.17C66.94,4.78,66.98,4.46,67.03,4.15z M75.64,15.87c1.44,1.86,2.83,3.76,4.34,5.57     c1.43,1.72,3.16,3.12,5.03,4.35c0.06,0.04,0.13,0.08,0.26,0.15c-0.05-0.17-0.08-0.28-0.11-0.4c-0.93-2.95-2.36-5.62-4.18-8.12     c-0.55-0.76-1.14-1.18-2.09-1.24c-0.99-0.05-1.97-0.26-2.96-0.4c-0.1-0.01-0.2-0.02-0.33-0.03     C75.62,15.82,75.62,15.85,75.64,15.87z M72.24,10.86c-0.07,0.05-0.13,0.11-0.22,0.19c0.37,0.48,0.73,0.96,1.08,1.43     c0.39,0.52,0.78,1.05,1.18,1.56c0.07,0.09,0.19,0.18,0.3,0.2c1.43,0.21,2.86,0.41,4.28,0.62c0.03,0,0.06,0,0.05,0     c-1.43-1.9-2.87-3.82-4.32-5.76C73.84,9.66,73.04,10.26,72.24,10.86z M72.3,6.46c-0.16-0.21-0.35-0.43-0.52-0.65     c-0.4-0.53-0.79-1.07-1.2-1.59c-0.44-0.56-1.25-0.67-1.81-0.27c-0.55,0.4-0.7,1.2-0.29,1.77c0.56,0.78,1.15,1.54,1.73,2.3     C70.91,7.5,71.58,7,72.3,6.46z M69.4,11.25c2.06-1.55,4.14-3.1,6.21-4.65c-0.13-0.17-0.27-0.37-0.4-0.54     c-2.06,1.55-4.13,3.1-6.22,4.67C69.12,10.9,69.27,11.09,69.4,11.25z"
   id="path384" />
			<path
   d="M84.35,37.7c-0.05-0.03-0.1-0.07-0.16-0.09c-1.76-0.66-2.59-2.66-1.77-4.34c0.79-1.61,1.96-2.95,3.15-4.27     c0.3-0.34,0.87-0.25,1.06,0.15c0.75,1.55,1.46,3.12,1.8,4.82c0.28,1.4-0.27,2.69-1.48,3.36c-0.48,0.26-1.06,0.35-1.59,0.51     C85.03,37.8,84.69,37.75,84.35,37.7z M83.57,33.95c-0.32,0.67-0.12,1.49,0.44,2.02c0.59,0.55,1.45,0.67,2.17,0.3     c0.68-0.35,1.09-1.09,0.98-1.82c-0.21-1.31-0.76-2.5-1.28-3.79C85,31.74,84.14,32.74,83.57,33.95z"
   id="path386" />
		</g>
	</g>
	<path
   class="st4"
   d="M35.7,30.6c-1.21,1.71-2.32,3.36-3.22,4.86c-4.09,6.84-10.37,18.76-6.23,30.29h0   c3.8,9.91,12.76,16.87,23.21,16.87c10.45,0,19.41-6.96,23.21-16.87"
   id="path391" />
	<path
   class="st4"
   d="M40.41,24.34c2.54-3.23,5.02-6.22,6.74-8.25c1.21-1.43,3.41-1.43,4.62,0c3.71,4.38,10.96,13.18,14.67,19.37   c4.09,6.84,10.37,18.76,6.23,30.29"
   id="path393" />
	<line
   class="st4"
   x1="38.47"
   y1="26.96"
   x2="37.95"
   y2="27.66"
   id="line395" />
	<g
   class="st5"
   id="g401">
		<path
   d="M33.01,44.78c0-0.89,0.26-1.59,0.77-2.1c0.52-0.51,1.22-0.77,2.1-0.77h10.21c0.14,0.23,0.27,0.53,0.39,0.9    s0.17,0.76,0.17,1.18c0,0.78-0.17,1.34-0.51,1.67c-0.34,0.33-0.79,0.5-1.35,0.5h-6.53v2.88h6.96c0.14,0.23,0.27,0.52,0.39,0.88    c0.11,0.36,0.17,0.75,0.17,1.16c0,0.78-0.17,1.34-0.49,1.67c-0.33,0.33-0.77,0.5-1.33,0.5h-5.69v3.25h7.95    c0.14,0.23,0.27,0.53,0.39,0.9c0.11,0.37,0.17,0.76,0.17,1.17c0,0.78-0.17,1.35-0.51,1.69c-0.34,0.34-0.79,0.51-1.35,0.51h-9.03    c-0.89,0-1.59-0.26-2.1-0.77c-0.52-0.52-0.77-1.22-0.77-2.1V44.78z"
   id="path397" />
		<path
   d="M59.33,45.68c-1.59,0-2.8,0.48-3.65,1.45c-0.85,0.97-1.27,2.34-1.27,4.12c0,1.79,0.47,3.18,1.41,4.15    c0.94,0.97,2.2,1.45,3.79,1.45c0.85,0,1.56-0.11,2.15-0.34c0.59-0.23,1.15-0.48,1.69-0.77c0.35,0.29,0.62,0.63,0.82,1.04    c0.2,0.4,0.29,0.87,0.29,1.41c0,0.85-0.47,1.56-1.41,2.15c-0.94,0.59-2.37,0.88-4.29,0.88c-1.38,0-2.68-0.2-3.9-0.59    c-1.22-0.39-2.28-0.99-3.19-1.81c-0.91-0.81-1.62-1.84-2.15-3.09c-0.53-1.25-0.79-2.74-0.79-4.47c0-1.61,0.25-3.03,0.76-4.25    c0.51-1.23,1.2-2.26,2.07-3.11c0.88-0.85,1.9-1.49,3.08-1.92c1.18-0.43,2.43-0.65,3.77-0.65c1.9,0,3.37,0.31,4.41,0.93    s1.56,1.41,1.56,2.38c0,0.54-0.14,1-0.4,1.39s-0.58,0.7-0.93,0.93c-0.54-0.35-1.11-0.65-1.72-0.9    C60.84,45.8,60.14,45.68,59.33,45.68z"
   id="path399" />
	</g>
	<line
   class="st10"
   x1="15.9"
   y1="7.64"
   x2="15.9"
   y2="36.02"
   id="line403" />
	<polyline
   class="st10"
   points="7.36,16.89 15.79,5.09 24.44,16.89  "
   id="polyline405" />
</g>
<g
   id="dosierung_x5F_ec_x5F_down_1_"
   class="st0">
	<g
   id="FURW2H.tif_7_"
   class="st5">
		<g
   id="g412">
			<path
   d="M67.03,4.15c0.03-0.05,0.07-0.1,0.09-0.16c0.28-0.64,0.73-1.13,1.38-1.4c1.14-0.48,2.42-0.13,3.18,0.87     c0.57,0.74,1.12,1.49,1.69,2.26c0.48-0.36,0.94-0.71,1.4-1.06c0.5-0.38,0.82-0.34,1.19,0.16c0.36,0.47,0.71,0.94,1.06,1.41     c0.36,0.48,0.32,0.8-0.17,1.17c-0.37,0.28-0.75,0.55-1.21,0.89c0.13,0.13,0.24,0.2,0.32,0.3c2.02,2.69,4.03,5.38,6.05,8.06     c2.36,3.13,4.01,6.6,4.93,10.42c0.08,0.32,0.09,0.62-0.2,0.85c-0.3,0.23-0.59,0.15-0.89-0.02c-3.2-1.83-5.96-4.19-8.2-7.12     c-2.19-2.86-4.33-5.76-6.5-8.65c-0.07-0.09-0.14-0.18-0.24-0.3c-0.39,0.3-0.77,0.6-1.16,0.89c-0.43,0.32-0.78,0.27-1.1-0.16     c-0.36-0.47-0.71-0.94-1.06-1.41c-0.4-0.54-0.36-0.83,0.17-1.24c0.46-0.35,0.92-0.69,1.39-1.04c-0.42-0.55-0.8-1.08-1.2-1.59     c-0.51-0.65-0.99-1.31-1.08-2.17C66.94,4.78,66.98,4.46,67.03,4.15z M75.64,15.87c1.44,1.86,2.83,3.76,4.34,5.57     c1.43,1.72,3.16,3.12,5.03,4.35c0.06,0.04,0.13,0.08,0.26,0.15c-0.05-0.17-0.08-0.28-0.11-0.4c-0.93-2.95-2.36-5.62-4.18-8.12     c-0.55-0.76-1.14-1.18-2.09-1.24c-0.99-0.05-1.97-0.26-2.96-0.4c-0.1-0.01-0.2-0.02-0.33-0.03     C75.62,15.82,75.62,15.85,75.64,15.87z M72.24,10.86c-0.07,0.05-0.13,0.11-0.22,0.19c0.37,0.48,0.73,0.96,1.08,1.43     c0.39,0.52,0.78,1.05,1.18,1.56c0.07,0.09,0.19,0.18,0.3,0.2c1.43,0.21,2.86,0.41,4.28,0.62c0.03,0,0.06,0,0.05,0     c-1.43-1.9-2.87-3.82-4.32-5.76C73.84,9.66,73.04,10.26,72.24,10.86z M72.3,6.46c-0.16-0.21-0.35-0.43-0.52-0.65     c-0.4-0.53-0.79-1.07-1.2-1.59c-0.44-0.56-1.25-0.67-1.81-0.27c-0.55,0.4-0.7,1.2-0.29,1.77c0.56,0.78,1.15,1.54,1.73,2.3     C70.91,7.5,71.58,7,72.3,6.46z M69.4,11.25c2.06-1.55,4.14-3.1,6.21-4.65c-0.13-0.17-0.27-0.37-0.4-0.54     c-2.06,1.55-4.13,3.1-6.22,4.67C69.12,10.9,69.27,11.09,69.4,11.25z"
   id="path408" />
			<path
   d="M84.35,37.7c-0.05-0.03-0.1-0.07-0.16-0.09c-1.76-0.66-2.59-2.66-1.77-4.34c0.79-1.61,1.96-2.95,3.15-4.27     c0.3-0.34,0.87-0.25,1.06,0.15c0.75,1.55,1.46,3.12,1.8,4.82c0.28,1.4-0.27,2.69-1.48,3.36c-0.48,0.26-1.06,0.35-1.59,0.51     C85.03,37.8,84.69,37.75,84.35,37.7z M83.57,33.95c-0.32,0.67-0.12,1.49,0.44,2.02c0.59,0.55,1.45,0.67,2.17,0.3     c0.68-0.35,1.09-1.09,0.98-1.82c-0.21-1.31-0.76-2.5-1.28-3.79C85,31.74,84.14,32.74,83.57,33.95z"
   id="path410" />
		</g>
	</g>
	<path
   class="st4"
   d="M35.7,30.6c-1.21,1.71-2.32,3.36-3.22,4.86c-4.09,6.84-10.37,18.76-6.23,30.29h0   c3.8,9.91,12.76,16.87,23.21,16.87c10.45,0,19.41-6.96,23.21-16.87"
   id="path415" />
	<path
   class="st4"
   d="M40.41,24.34c2.54-3.23,5.02-6.22,6.74-8.25c1.21-1.43,3.41-1.43,4.62,0c3.71,4.38,10.96,13.18,14.67,19.37   c4.09,6.84,10.37,18.76,6.23,30.29"
   id="path417" />
	<line
   class="st4"
   x1="38.47"
   y1="26.96"
   x2="37.95"
   y2="27.66"
   id="line419" />
	<g
   class="st5"
   id="g425">
		<path
   d="M33.01,44.78c0-0.89,0.26-1.59,0.77-2.1c0.52-0.51,1.22-0.77,2.1-0.77h10.21c0.14,0.23,0.27,0.53,0.39,0.9    s0.17,0.76,0.17,1.18c0,0.78-0.17,1.34-0.51,1.67c-0.34,0.33-0.79,0.5-1.35,0.5h-6.53v2.88h6.96c0.14,0.23,0.27,0.52,0.39,0.88    c0.11,0.36,0.17,0.75,0.17,1.16c0,0.78-0.17,1.34-0.49,1.67c-0.33,0.33-0.77,0.5-1.33,0.5h-5.69v3.25h7.95    c0.14,0.23,0.27,0.53,0.39,0.9c0.11,0.37,0.17,0.76,0.17,1.17c0,0.78-0.17,1.35-0.51,1.69c-0.34,0.34-0.79,0.51-1.35,0.51h-9.03    c-0.89,0-1.59-0.26-2.1-0.77c-0.52-0.52-0.77-1.22-0.77-2.1V44.78z"
   id="path421" />
		<path
   d="M59.33,45.68c-1.59,0-2.8,0.48-3.65,1.45c-0.85,0.97-1.27,2.34-1.27,4.12c0,1.79,0.47,3.18,1.41,4.15    c0.94,0.97,2.2,1.45,3.79,1.45c0.85,0,1.56-0.11,2.15-0.34c0.59-0.23,1.15-0.48,1.69-0.77c0.35,0.29,0.62,0.63,0.82,1.04    c0.2,0.4,0.29,0.87,0.29,1.41c0,0.85-0.47,1.56-1.41,2.15c-0.94,0.59-2.37,0.88-4.29,0.88c-1.38,0-2.68-0.2-3.9-0.59    c-1.22-0.39-2.28-0.99-3.19-1.81c-0.91-0.81-1.62-1.84-2.15-3.09c-0.53-1.25-0.79-2.74-0.79-4.47c0-1.61,0.25-3.03,0.76-4.25    c0.51-1.23,1.2-2.26,2.07-3.11c0.88-0.85,1.9-1.49,3.08-1.92c1.18-0.43,2.43-0.65,3.77-0.65c1.9,0,3.37,0.31,4.41,0.93    s1.56,1.41,1.56,2.38c0,0.54-0.14,1-0.4,1.39s-0.58,0.7-0.93,0.93c-0.54-0.35-1.11-0.65-1.72-0.9    C60.84,45.8,60.14,45.68,59.33,45.68z"
   id="path423" />
	</g>
	<line
   class="st10"
   x1="15.9"
   y1="33.47"
   x2="15.9"
   y2="5.09"
   id="line427" />
	<polyline
   class="st10"
   points="24.44,24.22 16.01,36.02 7.36,24.22  "
   id="polyline429" />
</g>
<g
   id="dosierung_x5F_ph_1_"
   class="st0">
	<g
   id="FURW2H.tif_1_"
   class="st5">
		<g
   id="g436">
			<path
   d="M67.03,4.15c0.03-0.05,0.07-0.1,0.09-0.16c0.28-0.64,0.73-1.13,1.38-1.4c1.14-0.48,2.42-0.13,3.18,0.87     c0.57,0.74,1.12,1.49,1.69,2.26c0.48-0.36,0.94-0.71,1.4-1.06c0.5-0.38,0.82-0.34,1.19,0.16c0.36,0.47,0.71,0.94,1.06,1.41     c0.36,0.48,0.32,0.8-0.17,1.17c-0.37,0.28-0.75,0.55-1.21,0.89c0.13,0.13,0.24,0.2,0.32,0.3c2.02,2.69,4.03,5.38,6.05,8.06     c2.36,3.13,4.01,6.6,4.93,10.42c0.08,0.32,0.09,0.62-0.2,0.85c-0.3,0.23-0.59,0.15-0.89-0.02c-3.2-1.83-5.96-4.19-8.2-7.12     c-2.19-2.86-4.33-5.76-6.5-8.65c-0.07-0.09-0.14-0.18-0.24-0.3c-0.39,0.3-0.77,0.6-1.16,0.89c-0.43,0.32-0.78,0.27-1.1-0.16     c-0.36-0.47-0.71-0.94-1.06-1.41c-0.4-0.54-0.36-0.83,0.17-1.24c0.46-0.35,0.92-0.69,1.39-1.04c-0.42-0.55-0.8-1.08-1.2-1.59     c-0.51-0.65-0.99-1.31-1.08-2.17C66.94,4.78,66.98,4.46,67.03,4.15z M75.64,15.87c1.44,1.86,2.83,3.76,4.34,5.57     c1.43,1.72,3.16,3.12,5.03,4.35c0.06,0.04,0.13,0.08,0.26,0.15c-0.05-0.17-0.08-0.28-0.11-0.4c-0.93-2.95-2.36-5.62-4.18-8.12     c-0.55-0.76-1.14-1.18-2.09-1.24c-0.99-0.05-1.97-0.26-2.96-0.4c-0.1-0.01-0.2-0.02-0.33-0.03     C75.62,15.82,75.62,15.85,75.64,15.87z M72.24,10.86c-0.07,0.05-0.13,0.11-0.22,0.19c0.37,0.48,0.73,0.96,1.08,1.43     c0.39,0.52,0.78,1.05,1.18,1.56c0.07,0.09,0.19,0.18,0.3,0.2c1.43,0.21,2.86,0.41,4.28,0.62c0.03,0,0.06,0,0.05,0     c-1.43-1.9-2.87-3.82-4.32-5.76C73.84,9.66,73.04,10.26,72.24,10.86z M72.3,6.46c-0.16-0.21-0.35-0.43-0.52-0.65     c-0.4-0.53-0.79-1.07-1.2-1.59c-0.44-0.56-1.25-0.67-1.81-0.27c-0.55,0.4-0.7,1.2-0.29,1.77c0.56,0.78,1.15,1.54,1.73,2.3     C70.91,7.5,71.58,7,72.3,6.46z M69.4,11.25c2.06-1.55,4.14-3.1,6.21-4.65c-0.13-0.17-0.27-0.37-0.4-0.54     c-2.06,1.55-4.13,3.1-6.22,4.67C69.12,10.9,69.27,11.09,69.4,11.25z"
   id="path432" />
			<path
   d="M84.35,37.7c-0.05-0.03-0.1-0.07-0.16-0.09c-1.76-0.66-2.59-2.66-1.77-4.34c0.79-1.61,1.96-2.95,3.15-4.27     c0.3-0.34,0.87-0.25,1.06,0.15c0.75,1.55,1.46,3.12,1.8,4.82c0.28,1.4-0.27,2.69-1.48,3.36c-0.48,0.26-1.06,0.35-1.59,0.51     C85.03,37.8,84.69,37.75,84.35,37.7z M83.57,33.95c-0.32,0.67-0.12,1.49,0.44,2.02c0.59,0.55,1.45,0.67,2.17,0.3     c0.68-0.35,1.09-1.09,0.98-1.82c-0.21-1.31-0.76-2.5-1.28-3.79C85,31.74,84.14,32.74,83.57,33.95z"
   id="path434" />
		</g>
	</g>
	<path
   class="st4"
   d="M35.7,30.6c-1.21,1.71-2.32,3.36-3.22,4.86c-4.09,6.84-10.37,18.76-6.23,30.29h0   c3.8,9.91,12.76,16.87,23.21,16.87c10.45,0,19.41-6.96,23.21-16.87"
   id="path439" />
	<path
   class="st4"
   d="M40.41,24.34c2.54-3.23,5.02-6.22,6.74-8.25c1.21-1.43,3.41-1.43,4.62,0c3.71,4.38,10.96,13.18,14.67,19.37   c4.09,6.84,10.37,18.76,6.23,30.29"
   id="path441" />
	<line
   class="st4"
   x1="38.47"
   y1="26.96"
   x2="37.95"
   y2="27.66"
   id="line443" />
	<g
   class="st5"
   id="g449">
		<path
   d="M37.47,44.93c1.23,0,2.38,0.16,3.44,0.48c1.06,0.32,1.97,0.81,2.73,1.47c0.76,0.66,1.36,1.49,1.79,2.48    c0.43,1,0.65,2.19,0.65,3.56c0,1.32-0.18,2.47-0.56,3.46s-0.9,1.82-1.57,2.48c-0.68,0.67-1.5,1.17-2.45,1.5    c-0.96,0.33-2.02,0.49-3.19,0.49c-0.88,0-1.71-0.13-2.47-0.4v5.12c-0.21,0.06-0.54,0.13-0.99,0.2c-0.45,0.07-0.92,0.11-1.39,0.11    c-0.45,0-0.86-0.03-1.22-0.09c-0.36-0.06-0.66-0.19-0.91-0.37c-0.25-0.19-0.43-0.44-0.56-0.76s-0.19-0.74-0.19-1.25V48.61    c0-0.56,0.12-1.01,0.35-1.36c0.24-0.35,0.56-0.67,0.97-0.96c0.64-0.41,1.43-0.74,2.38-0.99C35.24,45.06,36.3,44.93,37.47,44.93z     M37.54,56.72c2.12,0,3.18-1.27,3.18-3.8c0-1.32-0.26-2.29-0.79-2.93c-0.52-0.64-1.28-0.96-2.27-0.96c-0.39,0-0.74,0.05-1.05,0.14    c-0.31,0.09-0.58,0.2-0.8,0.32v6.79c0.25,0.12,0.51,0.23,0.8,0.31C36.9,56.68,37.21,56.72,37.54,56.72z"
   id="path445" />
		<path
   d="M65.78,60.27c-0.23,0.06-0.58,0.12-1.06,0.19c-0.48,0.06-0.96,0.09-1.44,0.09s-0.89-0.04-1.25-0.11    c-0.36-0.07-0.66-0.2-0.91-0.38c-0.25-0.19-0.43-0.44-0.56-0.77c-0.12-0.33-0.19-0.76-0.19-1.3v-4.81h-5.93v7.1    c-0.23,0.06-0.58,0.12-1.06,0.19c-0.48,0.06-0.96,0.09-1.44,0.09c-0.47,0-0.89-0.04-1.25-0.11c-0.36-0.07-0.66-0.2-0.91-0.38    c-0.25-0.19-0.43-0.44-0.56-0.77c-0.12-0.33-0.19-0.76-0.19-1.3v-16.3c0.23-0.04,0.59-0.1,1.08-0.17s0.97-0.11,1.42-0.11    c0.47,0,0.89,0.04,1.25,0.11c0.36,0.07,0.66,0.2,0.91,0.38c0.25,0.19,0.43,0.44,0.56,0.77c0.12,0.33,0.18,0.76,0.18,1.3v4.94h5.93    v-7.22c0.23-0.04,0.59-0.1,1.08-0.17c0.5-0.07,0.97-0.11,1.42-0.11c0.47,0,0.89,0.04,1.25,0.11c0.36,0.07,0.66,0.2,0.91,0.38    c0.25,0.19,0.43,0.44,0.56,0.77c0.13,0.33,0.19,0.76,0.19,1.3V60.27z"
   id="path447" />
	</g>
</g>
<g
   id="dosierung_x5F_ph_x5F_down_1_"
   class="st0">
	<g
   id="FURW2H.tif_2_"
   class="st5">
		<g
   id="g456">
			<path
   d="M67.03,4.15c0.03-0.05,0.07-0.1,0.09-0.16c0.28-0.64,0.73-1.13,1.38-1.4c1.14-0.48,2.42-0.13,3.18,0.87     c0.57,0.74,1.12,1.49,1.69,2.26c0.48-0.36,0.94-0.71,1.4-1.06c0.5-0.38,0.82-0.34,1.19,0.16c0.36,0.47,0.71,0.94,1.06,1.41     c0.36,0.48,0.32,0.8-0.17,1.17c-0.37,0.28-0.75,0.55-1.21,0.89c0.13,0.13,0.24,0.2,0.32,0.3c2.02,2.69,4.03,5.38,6.05,8.06     c2.36,3.13,4.01,6.6,4.93,10.42c0.08,0.32,0.09,0.62-0.2,0.85c-0.3,0.23-0.59,0.15-0.89-0.02c-3.2-1.83-5.96-4.19-8.2-7.12     c-2.19-2.86-4.33-5.76-6.5-8.65c-0.07-0.09-0.14-0.18-0.24-0.3c-0.39,0.3-0.77,0.6-1.16,0.89c-0.43,0.32-0.78,0.27-1.1-0.16     c-0.36-0.47-0.71-0.94-1.06-1.41c-0.4-0.54-0.36-0.83,0.17-1.24c0.46-0.35,0.92-0.69,1.39-1.04c-0.42-0.55-0.8-1.08-1.2-1.59     c-0.51-0.65-0.99-1.31-1.08-2.17C66.94,4.78,66.98,4.46,67.03,4.15z M75.64,15.87c1.44,1.86,2.83,3.76,4.34,5.57     c1.43,1.72,3.16,3.12,5.03,4.35c0.06,0.04,0.13,0.08,0.26,0.15c-0.05-0.17-0.08-0.28-0.11-0.4c-0.93-2.95-2.36-5.62-4.18-8.12     c-0.55-0.76-1.14-1.18-2.09-1.24c-0.99-0.05-1.97-0.26-2.96-0.4c-0.1-0.01-0.2-0.02-0.33-0.03     C75.62,15.82,75.62,15.85,75.64,15.87z M72.24,10.86c-0.07,0.05-0.13,0.11-0.22,0.19c0.37,0.48,0.73,0.96,1.08,1.43     c0.39,0.52,0.78,1.05,1.18,1.56c0.07,0.09,0.19,0.18,0.3,0.2c1.43,0.21,2.86,0.41,4.28,0.62c0.03,0,0.06,0,0.05,0     c-1.43-1.9-2.87-3.82-4.32-5.76C73.84,9.66,73.04,10.26,72.24,10.86z M72.3,6.46c-0.16-0.21-0.35-0.43-0.52-0.65     c-0.4-0.53-0.79-1.07-1.2-1.59c-0.44-0.56-1.25-0.67-1.81-0.27c-0.55,0.4-0.7,1.2-0.29,1.77c0.56,0.78,1.15,1.54,1.73,2.3     C70.91,7.5,71.58,7,72.3,6.46z M69.4,11.25c2.06-1.55,4.14-3.1,6.21-4.65c-0.13-0.17-0.27-0.37-0.4-0.54     c-2.06,1.55-4.13,3.1-6.22,4.67C69.12,10.9,69.27,11.09,69.4,11.25z"
   id="path452" />
			<path
   d="M84.35,37.7c-0.05-0.03-0.1-0.07-0.16-0.09c-1.76-0.66-2.59-2.66-1.77-4.34c0.79-1.61,1.96-2.95,3.15-4.27     c0.3-0.34,0.87-0.25,1.06,0.15c0.75,1.55,1.46,3.12,1.8,4.82c0.28,1.4-0.27,2.69-1.48,3.36c-0.48,0.26-1.06,0.35-1.59,0.51     C85.03,37.8,84.69,37.75,84.35,37.7z M83.57,33.95c-0.32,0.67-0.12,1.49,0.44,2.02c0.59,0.55,1.45,0.67,2.17,0.3     c0.68-0.35,1.09-1.09,0.98-1.82c-0.21-1.31-0.76-2.5-1.28-3.79C85,31.74,84.14,32.74,83.57,33.95z"
   id="path454" />
		</g>
	</g>
	<path
   class="st4"
   d="M35.7,30.6c-1.21,1.71-2.32,3.36-3.22,4.86c-4.09,6.84-10.37,18.76-6.23,30.29h0   c3.8,9.91,12.76,16.87,23.21,16.87c10.45,0,19.41-6.96,23.21-16.87"
   id="path459" />
	<path
   class="st4"
   d="M40.41,24.34c2.54-3.23,5.02-6.22,6.74-8.25c1.21-1.43,3.41-1.43,4.62,0c3.71,4.38,10.96,13.18,14.67,19.37   c4.09,6.84,10.37,18.76,6.23,30.29"
   id="path461" />
	<line
   class="st4"
   x1="38.47"
   y1="26.96"
   x2="37.95"
   y2="27.66"
   id="line463" />
	<g
   class="st5"
   id="g469">
		<path
   d="M37.47,44.93c1.23,0,2.38,0.16,3.44,0.48c1.06,0.32,1.97,0.81,2.73,1.47c0.76,0.66,1.36,1.49,1.79,2.48    c0.43,1,0.65,2.19,0.65,3.56c0,1.32-0.18,2.47-0.56,3.46s-0.9,1.82-1.57,2.48c-0.68,0.67-1.5,1.17-2.45,1.5    c-0.96,0.33-2.02,0.49-3.19,0.49c-0.88,0-1.71-0.13-2.47-0.4v5.12c-0.21,0.06-0.54,0.13-0.99,0.2c-0.45,0.07-0.92,0.11-1.39,0.11    c-0.45,0-0.86-0.03-1.22-0.09c-0.36-0.06-0.66-0.19-0.91-0.37c-0.25-0.19-0.43-0.44-0.56-0.76s-0.19-0.74-0.19-1.25V48.61    c0-0.56,0.12-1.01,0.35-1.36c0.24-0.35,0.56-0.67,0.97-0.96c0.64-0.41,1.43-0.74,2.38-0.99C35.24,45.06,36.3,44.93,37.47,44.93z     M37.54,56.72c2.12,0,3.18-1.27,3.18-3.8c0-1.32-0.26-2.29-0.79-2.93c-0.52-0.64-1.28-0.96-2.27-0.96c-0.39,0-0.74,0.05-1.05,0.14    c-0.31,0.09-0.58,0.2-0.8,0.32v6.79c0.25,0.12,0.51,0.23,0.8,0.31C36.9,56.68,37.21,56.72,37.54,56.72z"
   id="path465" />
		<path
   d="M65.78,60.27c-0.23,0.06-0.58,0.12-1.06,0.19c-0.48,0.06-0.96,0.09-1.44,0.09s-0.89-0.04-1.25-0.11    c-0.36-0.07-0.66-0.2-0.91-0.38c-0.25-0.19-0.43-0.44-0.56-0.77c-0.12-0.33-0.19-0.76-0.19-1.3v-4.81h-5.93v7.1    c-0.23,0.06-0.58,0.12-1.06,0.19c-0.48,0.06-0.96,0.09-1.44,0.09c-0.47,0-0.89-0.04-1.25-0.11c-0.36-0.07-0.66-0.2-0.91-0.38    c-0.25-0.19-0.43-0.44-0.56-0.77c-0.12-0.33-0.19-0.76-0.19-1.3v-16.3c0.23-0.04,0.59-0.1,1.08-0.17s0.97-0.11,1.42-0.11    c0.47,0,0.89,0.04,1.25,0.11c0.36,0.07,0.66,0.2,0.91,0.38c0.25,0.19,0.43,0.44,0.56,0.77c0.12,0.33,0.18,0.76,0.18,1.3v4.94h5.93    v-7.22c0.23-0.04,0.59-0.1,1.08-0.17c0.5-0.07,0.97-0.11,1.42-0.11c0.47,0,0.89,0.04,1.25,0.11c0.36,0.07,0.66,0.2,0.91,0.38    c0.25,0.19,0.43,0.44,0.56,0.77c0.13,0.33,0.19,0.76,0.19,1.3V60.27z"
   id="path467" />
	</g>
	<line
   class="st10"
   x1="15.9"
   y1="33.47"
   x2="15.9"
   y2="5.09"
   id="line471" />
	<polyline
   class="st10"
   points="24.44,24.22 16.01,36.02 7.36,24.22  "
   id="polyline473" />
</g>
<g
   id="dosierung_x5F_ph_x5F_up_1_"
   class="st0">
	<g
   id="FURW2H.tif_3_"
   class="st5">
		<g
   id="g480">
			<path
   d="M67.03,4.15c0.03-0.05,0.07-0.1,0.09-0.16c0.28-0.64,0.73-1.13,1.38-1.4c1.14-0.48,2.42-0.13,3.18,0.87     c0.57,0.74,1.12,1.49,1.69,2.26c0.48-0.36,0.94-0.71,1.4-1.06c0.5-0.38,0.82-0.34,1.19,0.16c0.36,0.47,0.71,0.94,1.06,1.41     c0.36,0.48,0.32,0.8-0.17,1.17c-0.37,0.28-0.75,0.55-1.21,0.89c0.13,0.13,0.24,0.2,0.32,0.3c2.02,2.69,4.03,5.38,6.05,8.06     c2.36,3.13,4.01,6.6,4.93,10.42c0.08,0.32,0.09,0.62-0.2,0.85c-0.3,0.23-0.59,0.15-0.89-0.02c-3.2-1.83-5.96-4.19-8.2-7.12     c-2.19-2.86-4.33-5.76-6.5-8.65c-0.07-0.09-0.14-0.18-0.24-0.3c-0.39,0.3-0.77,0.6-1.16,0.89c-0.43,0.32-0.78,0.27-1.1-0.16     c-0.36-0.47-0.71-0.94-1.06-1.41c-0.4-0.54-0.36-0.83,0.17-1.24c0.46-0.35,0.92-0.69,1.39-1.04c-0.42-0.55-0.8-1.08-1.2-1.59     c-0.51-0.65-0.99-1.31-1.08-2.17C66.94,4.78,66.98,4.46,67.03,4.15z M75.64,15.87c1.44,1.86,2.83,3.76,4.34,5.57     c1.43,1.72,3.16,3.12,5.03,4.35c0.06,0.04,0.13,0.08,0.26,0.15c-0.05-0.17-0.08-0.28-0.11-0.4c-0.93-2.95-2.36-5.62-4.18-8.12     c-0.55-0.76-1.14-1.18-2.09-1.24c-0.99-0.05-1.97-0.26-2.96-0.4c-0.1-0.01-0.2-0.02-0.33-0.03     C75.62,15.82,75.62,15.85,75.64,15.87z M72.24,10.86c-0.07,0.05-0.13,0.11-0.22,0.19c0.37,0.48,0.73,0.96,1.08,1.43     c0.39,0.52,0.78,1.05,1.18,1.56c0.07,0.09,0.19,0.18,0.3,0.2c1.43,0.21,2.86,0.41,4.28,0.62c0.03,0,0.06,0,0.05,0     c-1.43-1.9-2.87-3.82-4.32-5.76C73.84,9.66,73.04,10.26,72.24,10.86z M72.3,6.46c-0.16-0.21-0.35-0.43-0.52-0.65     c-0.4-0.53-0.79-1.07-1.2-1.59c-0.44-0.56-1.25-0.67-1.81-0.27c-0.55,0.4-0.7,1.2-0.29,1.77c0.56,0.78,1.15,1.54,1.73,2.3     C70.91,7.5,71.58,7,72.3,6.46z M69.4,11.25c2.06-1.55,4.14-3.1,6.21-4.65c-0.13-0.17-0.27-0.37-0.4-0.54     c-2.06,1.55-4.13,3.1-6.22,4.67C69.12,10.9,69.27,11.09,69.4,11.25z"
   id="path476" />
			<path
   d="M84.35,37.7c-0.05-0.03-0.1-0.07-0.16-0.09c-1.76-0.66-2.59-2.66-1.77-4.34c0.79-1.61,1.96-2.95,3.15-4.27     c0.3-0.34,0.87-0.25,1.06,0.15c0.75,1.55,1.46,3.12,1.8,4.82c0.28,1.4-0.27,2.69-1.48,3.36c-0.48,0.26-1.06,0.35-1.59,0.51     C85.03,37.8,84.69,37.75,84.35,37.7z M83.57,33.95c-0.32,0.67-0.12,1.49,0.44,2.02c0.59,0.55,1.45,0.67,2.17,0.3     c0.68-0.35,1.09-1.09,0.98-1.82c-0.21-1.31-0.76-2.5-1.28-3.79C85,31.74,84.14,32.74,83.57,33.95z"
   id="path478" />
		</g>
	</g>
	<path
   class="st4"
   d="M35.7,30.6c-1.21,1.71-2.32,3.36-3.22,4.86c-4.09,6.84-10.37,18.76-6.23,30.29h0   c3.8,9.91,12.76,16.87,23.21,16.87c10.45,0,19.41-6.96,23.21-16.87"
   id="path483" />
	<path
   class="st4"
   d="M40.41,24.34c2.54-3.23,5.02-6.22,6.74-8.25c1.21-1.43,3.41-1.43,4.62,0c3.71,4.38,10.96,13.18,14.67,19.37   c4.09,6.84,10.37,18.76,6.23,30.29"
   id="path485" />
	<line
   class="st4"
   x1="38.47"
   y1="26.96"
   x2="37.95"
   y2="27.66"
   id="line487" />
	<g
   class="st5"
   id="g493">
		<path
   d="M37.47,44.93c1.23,0,2.38,0.16,3.44,0.48c1.06,0.32,1.97,0.81,2.73,1.47c0.76,0.66,1.36,1.49,1.79,2.48    c0.43,1,0.65,2.19,0.65,3.56c0,1.32-0.18,2.47-0.56,3.46s-0.9,1.82-1.57,2.48c-0.68,0.67-1.5,1.17-2.45,1.5    c-0.96,0.33-2.02,0.49-3.19,0.49c-0.88,0-1.71-0.13-2.47-0.4v5.12c-0.21,0.06-0.54,0.13-0.99,0.2c-0.45,0.07-0.92,0.11-1.39,0.11    c-0.45,0-0.86-0.03-1.22-0.09c-0.36-0.06-0.66-0.19-0.91-0.37c-0.25-0.19-0.43-0.44-0.56-0.76s-0.19-0.74-0.19-1.25V48.61    c0-0.56,0.12-1.01,0.35-1.36c0.24-0.35,0.56-0.67,0.97-0.96c0.64-0.41,1.43-0.74,2.38-0.99C35.24,45.06,36.3,44.93,37.47,44.93z     M37.54,56.72c2.12,0,3.18-1.27,3.18-3.8c0-1.32-0.26-2.29-0.79-2.93c-0.52-0.64-1.28-0.96-2.27-0.96c-0.39,0-0.74,0.05-1.05,0.14    c-0.31,0.09-0.58,0.2-0.8,0.32v6.79c0.25,0.12,0.51,0.23,0.8,0.31C36.9,56.68,37.21,56.72,37.54,56.72z"
   id="path489" />
		<path
   d="M65.78,60.27c-0.23,0.06-0.58,0.12-1.06,0.19c-0.48,0.06-0.96,0.09-1.44,0.09s-0.89-0.04-1.25-0.11    c-0.36-0.07-0.66-0.2-0.91-0.38c-0.25-0.19-0.43-0.44-0.56-0.77c-0.12-0.33-0.19-0.76-0.19-1.3v-4.81h-5.93v7.1    c-0.23,0.06-0.58,0.12-1.06,0.19c-0.48,0.06-0.96,0.09-1.44,0.09c-0.47,0-0.89-0.04-1.25-0.11c-0.36-0.07-0.66-0.2-0.91-0.38    c-0.25-0.19-0.43-0.44-0.56-0.77c-0.12-0.33-0.19-0.76-0.19-1.3v-16.3c0.23-0.04,0.59-0.1,1.08-0.17s0.97-0.11,1.42-0.11    c0.47,0,0.89,0.04,1.25,0.11c0.36,0.07,0.66,0.2,0.91,0.38c0.25,0.19,0.43,0.44,0.56,0.77c0.12,0.33,0.18,0.76,0.18,1.3v4.94h5.93    v-7.22c0.23-0.04,0.59-0.1,1.08-0.17c0.5-0.07,0.97-0.11,1.42-0.11c0.47,0,0.89,0.04,1.25,0.11c0.36,0.07,0.66,0.2,0.91,0.38    c0.25,0.19,0.43,0.44,0.56,0.77c0.13,0.33,0.19,0.76,0.19,1.3V60.27z"
   id="path491" />
	</g>
	<line
   class="st10"
   x1="15.9"
   y1="7.64"
   x2="15.9"
   y2="36.02"
   id="line495" />
	<polyline
   class="st10"
   points="7.36,16.89 15.79,5.09 24.44,16.89  "
   id="polyline497" />
</g>
<g
   id="nutrient_x5F_chiller"
   class="st0">
	<path
   class="st18"
   d="M82.75,92.32c0,1.87-1.55,3.39-3.45,3.39H19.42c-1.91,0-3.45-1.52-3.45-3.39V21.59   c0-1.87,1.55-3.39,3.45-3.39H79.3c1.91,0,3.45,1.52,3.45,3.39V92.32z"
   id="path500" />
	<path
   class="st15"
   d="M49.16,22.06h23.63l-11.81,6.47l-3.04,1.66c-5.47,2.99-12.08,2.99-17.55,0l-3.04-1.66l-11.81-6.47H49.16z"
   id="path502" />
	<line
   class="st15"
   x1="20.65"
   y1="39.39"
   x2="77.38"
   y2="39.39"
   id="line504" />
	<line
   class="st15"
   x1="20.65"
   y1="46.38"
   x2="77.38"
   y2="46.38"
   id="line506" />
	<line
   class="st15"
   x1="20.65"
   y1="53.38"
   x2="77.38"
   y2="53.38"
   id="line508" />
	<line
   class="st15"
   x1="20.65"
   y1="60.37"
   x2="77.38"
   y2="60.37"
   id="line510" />
	<line
   class="st15"
   x1="20.65"
   y1="67.36"
   x2="77.38"
   y2="67.36"
   id="line512" />
	<line
   class="st15"
   x1="20.65"
   y1="74.35"
   x2="77.38"
   y2="74.35"
   id="line514" />
	<line
   class="st15"
   x1="20.65"
   y1="81.34"
   x2="77.38"
   y2="81.34"
   id="line516" />
	<line
   class="st15"
   x1="20.65"
   y1="88.33"
   x2="77.38"
   y2="88.33"
   id="line518" />
	<path
   class="st15"
   d="M32.84,18.32h-5.59c-1.1,0-2-0.9-2-2v-0.99c0-1.1,0.9-2,2-2h5.59c1.1,0,2,0.9,2,2v0.99   C34.84,17.42,33.94,18.32,32.84,18.32z"
   id="path520" />
	<path
   class="st15"
   d="M70.79,18.32H65.2c-1.1,0-2-0.9-2-2v-0.99c0-1.1,0.9-2,2-2h5.59c1.1,0,2,0.9,2,2v0.99   C72.79,17.42,71.89,18.32,70.79,18.32z"
   id="path522" />
	<path
   class="st15"
   d="M32.84,5.65v6.36c0,0.61-0.5,1.12-1.12,1.12h-3.37c-0.61,0-1.12-0.5-1.12-1.12V9.83l-9.91-3.66   c-0.57-0.21-0.88-0.85-0.66-1.43l0.47-1.28C17.35,2.89,18,2.59,18.57,2.8L27.24,6V5.65c0-0.61,0.5-1.12,1.12-1.12h3.37   C32.34,4.54,32.84,5.04,32.84,5.65z"
   id="path524" />
	<path
   class="st15"
   d="M80.76,6.17l-9.91,3.66v2.18c0,0.61-0.5,1.12-1.12,1.12h-3.37c-0.61,0-1.12-0.5-1.12-1.12V5.65   c0-0.61,0.5-1.12,1.12-1.12h3.37c0.61,0,1.12,0.5,1.12,1.12V6l8.67-3.2c0.57-0.21,1.22,0.09,1.43,0.66l0.47,1.28   C81.64,5.32,81.34,5.96,80.76,6.17z"
   id="path526" />
</g>
<g
   id="heizung_1_"
   class="st0">
	<path
   class="st1"
   d="M57.11,63.42V22.8c0-3.55-2.91-6.46-6.46-6.46h-0.11c-3.55,0-6.46,2.91-6.46,6.46v40.62   c-2.49,1.94-4.1,4.96-4.1,8.37c0,5.86,4.75,10.61,10.61,10.61c5.86,0,10.61-4.75,10.61-10.61C61.21,68.39,59.6,65.37,57.11,63.42z"
   id="path529" />
	<line
   class="st2"
   x1="50.6"
   y1="35.56"
   x2="50.6"
   y2="73.34"
   id="line531" />
	<path
   class="st3"
   d="M54.03,71.79c0-1.89-1.54-3.43-3.43-3.43c-1.89,0-3.43,1.53-3.43,3.43c0,1.89,1.54,3.43,3.43,3.43   C52.49,75.22,54.03,73.69,54.03,71.79"
   id="path533" />
	<line
   class="st4"
   x1="38"
   y1="22.82"
   x2="28.19"
   y2="22.82"
   id="line535" />
	<line
   class="st4"
   x1="38"
   y1="28.09"
   x2="32.29"
   y2="28.09"
   id="line537" />
	<line
   class="st4"
   x1="38"
   y1="33.37"
   x2="28.19"
   y2="33.37"
   id="line539" />
	<line
   class="st4"
   x1="38"
   y1="38.64"
   x2="32.29"
   y2="38.64"
   id="line541" />
	<line
   class="st10"
   x1="76.42"
   y1="7.64"
   x2="76.42"
   y2="36.02"
   id="line543" />
	<polyline
   class="st10"
   points="67.88,16.89 76.31,5.09 84.96,16.89  "
   id="polyline545" />
</g>
<g
   id="kühlung_2_"
   class="st0">
	<path
   class="st1"
   d="M57.11,63.42V22.8c0-3.55-2.91-6.46-6.46-6.46h-0.11c-3.55,0-6.46,2.91-6.46,6.46v40.62   c-2.49,1.94-4.1,4.96-4.1,8.37c0,5.86,4.75,10.61,10.61,10.61c5.86,0,10.61-4.75,10.61-10.61C61.21,68.39,59.6,65.37,57.11,63.42z"
   id="path548" />
	<line
   class="st2"
   x1="50.6"
   y1="35.56"
   x2="50.6"
   y2="73.34"
   id="line550" />
	<path
   class="st3"
   d="M54.03,71.79c0-1.89-1.54-3.43-3.43-3.43c-1.89,0-3.43,1.53-3.43,3.43c0,1.89,1.54,3.43,3.43,3.43   C52.49,75.22,54.03,73.69,54.03,71.79"
   id="path552" />
	<line
   class="st4"
   x1="38"
   y1="22.82"
   x2="28.19"
   y2="22.82"
   id="line554" />
	<line
   class="st4"
   x1="38"
   y1="28.09"
   x2="32.29"
   y2="28.09"
   id="line556" />
	<line
   class="st4"
   x1="38"
   y1="33.37"
   x2="28.19"
   y2="33.37"
   id="line558" />
	<line
   class="st4"
   x1="38"
   y1="38.64"
   x2="32.29"
   y2="38.64"
   id="line560" />
	<line
   class="st10"
   x1="76.42"
   y1="33.47"
   x2="76.42"
   y2="5.09"
   id="line562" />
	<polyline
   class="st10"
   points="84.96,24.22 76.53,36.02 67.88,24.22  "
   id="polyline564" />
</g>
<g
   id="vdp_x5F_ist"
   class="st0">
	<g
   class="st5"
   id="g576">
		<g
   id="humidity">
			<path
   class="st19"
   d="M70.86,73.39c-1.9,4.97-6.4,8.46-11.63,8.46s-9.73-3.49-11.63-8.46l0,0c-2.07-5.78,1.07-11.76,3.13-15.19     c1.86-3.1,5.51-7.52,7.35-9.71c0.54-0.64,1.5-0.72,2.13-0.18c0.06,0.05,0.12,0.11,0.18,0.18c1.87,2.2,5.51,6.61,7.36,9.71     C69.81,61.65,72.94,67.62,70.86,73.39"
   id="path567" />
			<line
   class="st20"
   x1="62.64"
   y1="63.07"
   x2="55.65"
   y2="74.14"
   id="line569" />
			<circle
   class="st20"
   cx="55.77"
   cy="64.64"
   r="2.18"
   id="circle571" />
			<circle
   class="st20"
   cx="62.69"
   cy="72.46"
   r="2.18"
   id="circle573" />
		</g>
	</g>
	<path
   class="st1"
   d="M49.47,60.42c-0.43-2.04-1.58-3.81-3.17-5.04V22.07c0-2.91-2.38-5.3-5.29-5.3h-0.09   c-2.91,0-5.29,2.39-5.29,5.3v33.31c-2.04,1.59-3.37,4.07-3.37,6.86c0,4.81,3.9,8.7,8.71,8.7c2.31,0,4.42-0.91,5.98-2.38"
   id="path578" />
	<line
   class="st2"
   x1="40.97"
   y1="32.53"
   x2="40.97"
   y2="63.51"
   id="line580" />
	<path
   class="st3"
   d="M43.78,62.25c0-1.55-1.26-2.81-2.81-2.81c-1.55,0-2.81,1.26-2.81,2.81c0,1.55,1.26,2.81,2.81,2.81   C42.52,65.06,43.78,63.8,43.78,62.25"
   id="path582" />
	<line
   class="st4"
   x1="30.64"
   y1="22.08"
   x2="22.59"
   y2="22.08"
   id="line584" />
	<line
   class="st4"
   x1="30.64"
   y1="26.41"
   x2="25.95"
   y2="26.41"
   id="line586" />
	<line
   class="st4"
   x1="30.64"
   y1="30.73"
   x2="22.59"
   y2="30.73"
   id="line588" />
	<line
   class="st4"
   x1="30.64"
   y1="35.06"
   x2="25.95"
   y2="35.06"
   id="line590" />
</g>
<g
   id="vdp_x5F_neu"
   class="st0">
	<path
   class="st1"
   d="M43.84,63.57c-0.46-2.22-1.72-4.15-3.45-5.49V21.78c0-3.17-2.59-5.77-5.77-5.77h-0.1   c-3.17,0-5.77,2.6-5.77,5.77v36.29c-2.23,1.73-3.67,4.43-3.67,7.48c0,5.23,4.24,9.48,9.49,9.48c2.52,0,4.81-0.99,6.51-2.59"
   id="path593" />
	<line
   class="st2"
   x1="34.57"
   y1="33.18"
   x2="34.57"
   y2="66.93"
   id="line595" />
	<path
   class="st3"
   d="M37.64,65.55c0-1.69-1.37-3.06-3.06-3.06c-1.69,0-3.06,1.37-3.06,3.06c0,1.69,1.37,3.06,3.06,3.06   C36.26,68.62,37.64,67.24,37.64,65.55"
   id="path597" />
	<line
   class="st4"
   x1="24.07"
   y1="21.8"
   x2="15.3"
   y2="21.8"
   id="line599" />
	<line
   class="st4"
   x1="24.07"
   y1="26.51"
   x2="18.97"
   y2="26.51"
   id="line601" />
	<line
   class="st4"
   x1="24.07"
   y1="31.22"
   x2="15.3"
   y2="31.22"
   id="line603" />
	<line
   class="st4"
   x1="24.07"
   y1="35.93"
   x2="18.97"
   y2="35.93"
   id="line605" />
	<path
   class="st11"
   d="M57.58,83.85c-3.52,0-6.43-2.75-6.64-6.27h-3.38c-4.31-0.02-7.79-3.52-7.77-7.83   c0.02-3.94,2.97-7.25,6.88-7.72c0-0.23-0.02-0.45-0.02-0.67c-0.02-6.35,5.12-11.5,11.46-11.52c4.65-0.01,8.85,2.78,10.64,7.08   c3.2-2.2,7.58-1.4,9.79,1.81c0.66,0.96,1.08,2.08,1.2,3.24h0.2c4.31,0,7.8,3.49,7.81,7.8c0,4.31-3.49,7.8-7.8,7.81c0,0,0,0,0,0   H64.25C64.04,81.11,61.12,83.86,57.58,83.85z M58.13,51.38c-5.52,0-9.99,4.47-9.99,9.99c0,0.43,0.03,0.85,0.09,1.27   c0.03,0.21-0.03,0.43-0.17,0.59c-0.14,0.16-0.35,0.25-0.56,0.25c-3.48,0.11-6.21,3.03-6.09,6.51c0.11,3.34,2.81,6.02,6.16,6.1h4.13   c0.21,0,0.4,0.08,0.54,0.23c0.14,0.14,0.21,0.33,0.21,0.53v0.09c0,0.07,0,0.14,0,0.22c0,2.85,2.31,5.16,5.16,5.16   s5.16-2.31,5.16-5.16c0-0.07,0-0.15,0-0.22v-0.09c-0.03-0.41,0.28-0.77,0.69-0.79c0.02,0,0.04,0,0.06,0h16.49   c3.48,0,6.31-2.82,6.31-6.3c0-3.48-2.82-6.31-6.3-6.31c0,0,0,0-0.01,0h-0.97c-0.41,0-0.75-0.34-0.75-0.75   c0-3.06-2.49-5.54-5.55-5.54c-1.43,0-2.8,0.55-3.83,1.54c-0.19,0.18-0.45,0.24-0.7,0.18c-0.25-0.06-0.45-0.25-0.53-0.5   C66.38,54.21,62.51,51.36,58.13,51.38z"
   id="path607" />
	<g
   class="st5"
   id="g611">
		<path
   d="M62.48,64.14c0,1.04-0.31,1.85-0.94,2.44c-0.63,0.58-1.43,0.88-2.42,0.88c-1,0-1.81-0.29-2.43-0.88    c-0.62-0.58-0.93-1.4-0.93-2.44c0-1.03,0.31-1.83,0.93-2.42c0.62-0.58,1.43-0.88,2.43-0.88c0.99,0,1.79,0.29,2.42,0.88    C62.16,62.31,62.48,63.12,62.48,64.14z M58.29,64.14c0,0.42,0.08,0.73,0.24,0.93c0.16,0.2,0.36,0.3,0.59,0.3    c0.24,0,0.43-0.1,0.59-0.3c0.16-0.2,0.24-0.51,0.24-0.93c0-0.4-0.08-0.7-0.24-0.9c-0.16-0.19-0.36-0.29-0.59-0.29    c-0.24,0-0.43,0.1-0.59,0.29C58.37,63.44,58.29,63.74,58.29,64.14z M66.37,60.83c0.47,0.07,0.89,0.2,1.26,0.39    c0.37,0.19,0.57,0.44,0.59,0.76c0,0.22-0.06,0.45-0.17,0.69c-0.11,0.24-0.26,0.48-0.44,0.73l-7.21,10.44    c-0.44-0.07-0.82-0.2-1.11-0.39c-0.3-0.19-0.46-0.44-0.49-0.76c0-0.22,0.02-0.44,0.05-0.66c0.04-0.21,0.14-0.46,0.32-0.74    L66.37,60.83z M71.2,70.54c0,1.04-0.31,1.85-0.94,2.44c-0.62,0.58-1.43,0.88-2.42,0.88c-1,0-1.81-0.29-2.43-0.88    c-0.62-0.58-0.93-1.4-0.93-2.44c0-1.03,0.31-1.83,0.93-2.42c0.62-0.58,1.43-0.88,2.43-0.88c0.99,0,1.79,0.29,2.42,0.88    C70.89,68.71,71.2,69.51,71.2,70.54z M67.02,70.54c0,0.42,0.08,0.73,0.24,0.93c0.16,0.2,0.36,0.3,0.59,0.3    c0.24,0,0.43-0.1,0.59-0.3c0.16-0.2,0.24-0.51,0.24-0.93c0-0.4-0.08-0.7-0.24-0.9c-0.16-0.19-0.36-0.29-0.59-0.29    c-0.24,0-0.43,0.1-0.59,0.29C67.1,69.84,67.02,70.14,67.02,70.54z"
   id="path609" />
	</g>
</g>
<g
   id="licht"
   class="st0">
	<path
   class="st1"
   d="M43.25,25.06v4.02c0,1.52-0.59,2.98-1.68,3.98c-2.62,2.39-4.27,5.91-4.27,9.84c0,7.44,5.93,13.42,13.1,13.02   c6.41-0.35,11.55-5.87,11.76-12.6c0.12-4.05-1.52-7.71-4.18-10.19c-1.11-1.03-1.76-2.5-1.76-4.05v-4.02c0-1.5-1.16-2.72-2.6-2.72   h-7.77C44.41,22.34,43.25,23.56,43.25,25.06z"
   id="path614" />
	<path
   class="st1"
   d="M51.84,22.34c0.05-0.18,0.07-0.37,0.07-0.56c0-1.23-0.95-2.23-2.13-2.23c-1.18,0-2.13,1-2.13,2.23   c0,0.2,0.03,0.38,0.07,0.56H51.84z"
   id="path616" />
	<line
   class="st1"
   x1="56.27"
   y1="29.08"
   x2="43.3"
   y2="29.08"
   id="line618" />
	<line
   class="st1"
   x1="43.3"
   y1="25.7"
   x2="56.27"
   y2="25.7"
   id="line620" />
	<path
   class="st4"
   d="M49.78,52.34c5,0,9.05-4.24,9.05-9.48"
   id="path622" />
	<line
   class="st4"
   x1="49.5"
   y1="61.54"
   x2="49.5"
   y2="83.57"
   id="line624" />
	<line
   class="st4"
   x1="61.95"
   y1="56.75"
   x2="74.58"
   y2="69.37"
   id="line626" />
	<line
   class="st4"
   x1="36.67"
   y1="55.44"
   x2="24.04"
   y2="68.07"
   id="line628" />
	<line
   class="st4"
   x1="67.02"
   y1="42.62"
   x2="79.92"
   y2="42.62"
   id="line630" />
	<line
   class="st4"
   x1="20.15"
   y1="42.62"
   x2="33.05"
   y2="42.62"
   id="line632" />
</g>
<g
   id="co2_x5F_wolke"
   class="st0">
	<g
   class="st5"
   id="g648">
		<g
   id="co2_Kopie_1_">
			<g
   class="st13"
   id="g637">
				<path
   class="st9"
   d="M37.16,44.94c-1.6,0-2.82,0.49-3.68,1.46c-0.85,0.98-1.28,2.36-1.28,4.14c0,1.81,0.47,3.2,1.42,4.17      c0.94,0.98,2.22,1.46,3.82,1.46c0.85,0,1.57-0.11,2.16-0.34c0.59-0.23,1.16-0.49,1.7-0.78c0.35,0.29,0.63,0.64,0.83,1.04      c0.2,0.4,0.3,0.88,0.3,1.42c0,0.85-0.47,1.57-1.42,2.16s-2.38,0.89-4.31,0.89c-1.39,0-2.7-0.2-3.92-0.59      c-1.23-0.39-2.29-1-3.21-1.82c-0.91-0.82-1.63-1.86-2.16-3.12c-0.53-1.26-0.79-2.76-0.79-4.5c0-1.62,0.25-3.05,0.76-4.28      c0.51-1.24,1.2-2.28,2.09-3.13c0.88-0.85,1.92-1.49,3.1-1.93c1.18-0.44,2.45-0.65,3.8-0.65c1.91,0,3.39,0.31,4.44,0.93      c1.05,0.62,1.57,1.42,1.57,2.4c0,0.54-0.14,1.01-0.4,1.4c-0.27,0.39-0.58,0.71-0.93,0.93c-0.54-0.35-1.12-0.65-1.73-0.9      C38.68,45.06,37.97,44.94,37.16,44.94z"
   id="path635" />
			</g>
			<g
   class="st13"
   id="g643">
				<path
   class="st9"
   d="M44.07,50.54c0-1.62,0.25-3.05,0.76-4.3c0.51-1.25,1.2-2.29,2.09-3.13c0.88-0.84,1.92-1.48,3.11-1.92      c1.19-0.44,2.49-0.65,3.88-0.65c1.39,0,2.68,0.22,3.88,0.65c1.19,0.44,2.24,1.07,3.13,1.92c0.89,0.84,1.59,1.88,2.1,3.13      c0.51,1.25,0.76,2.68,0.76,4.3c0,1.62-0.25,3.06-0.75,4.31c-0.5,1.26-1.19,2.3-2.07,3.15c-0.88,0.84-1.93,1.48-3.13,1.91      c-1.2,0.44-2.51,0.65-3.93,0.65s-2.72-0.22-3.92-0.67c-1.2-0.45-2.24-1.09-3.11-1.95c-0.87-0.85-1.56-1.9-2.06-3.15      C44.32,53.56,44.07,52.14,44.07,50.54z M49.68,50.54c0,1.89,0.38,3.3,1.15,4.24c0.77,0.93,1.79,1.4,3.08,1.4      c1.31,0,2.35-0.47,3.12-1.4c0.77-0.93,1.15-2.35,1.15-4.24c0-1.87-0.38-3.27-1.14-4.2c-0.76-0.93-1.79-1.4-3.1-1.4      c-1.29,0-2.32,0.46-3.1,1.39C50.07,47.25,49.68,48.65,49.68,50.54z"
   id="path639" />
				<path
   class="st9"
   d="M68.86,49.73c1.25,0,2.21,0.3,2.88,0.89c0.67,0.59,1.01,1.35,1.01,2.29c0,0.64-0.21,1.26-0.64,1.85      c-0.43,0.59-0.95,1.16-1.57,1.7l-1.18,1.03h3.24c0.06,0.15,0.13,0.33,0.2,0.55c0.07,0.22,0.11,0.44,0.11,0.67      c0,0.46-0.1,0.78-0.3,0.97c-0.2,0.19-0.46,0.28-0.79,0.28h-5.51c-0.23-0.17-0.41-0.37-0.55-0.61c-0.13-0.24-0.2-0.52-0.2-0.86      c0-0.35,0.04-0.65,0.12-0.89c0.08-0.24,0.19-0.44,0.31-0.61l2.24-2.06c0.31-0.27,0.56-0.5,0.75-0.7      c0.19-0.2,0.33-0.37,0.44-0.51c0.1-0.14,0.17-0.28,0.2-0.39c0.03-0.11,0.05-0.22,0.05-0.33c0-0.27-0.1-0.47-0.3-0.61      c-0.2-0.14-0.46-0.2-0.79-0.2c-0.46,0-0.86,0.07-1.2,0.2c-0.34,0.13-0.63,0.28-0.86,0.42c-0.17-0.14-0.31-0.34-0.44-0.58      c-0.12-0.24-0.19-0.51-0.19-0.83c0-0.56,0.26-0.98,0.79-1.26S67.95,49.73,68.86,49.73z"
   id="path641" />
			</g>
			<path
   class="st21"
   d="M16.79,69.81h8.38c0,0.24,0,0.49,0,0.73c0,6.61,5.36,11.97,11.97,11.97s11.97-5.36,11.97-11.97     c0-0.24,0-0.49,0-0.73h33.42c7.84-0.09,14.16-6.46,14.18-14.3l0,0c-0.04-7.87-6.43-14.24-14.3-14.26h-1.85     c0-7.05-5.71-12.76-12.76-12.77c-3.28,0-6.44,1.26-8.82,3.53c-3.59-11.47-15.8-17.86-27.27-14.27     c-9.07,2.84-15.26,11.24-15.27,20.75c0.01,0.92,0.07,1.85,0.19,2.76C8.8,41.33,2.48,47.7,2.46,55.54l0,0     C2.5,63.42,8.9,69.8,16.79,69.81"
   id="path645" />
		</g>
	</g>
</g>
<g
   id="co2_x5F_ventil_1_"
   class="st0">
	<g
   class="st5"
   id="g664">
		<g
   id="co2_Kopie_4_">
			<g
   class="st13"
   id="g653">
				<path
   class="st9"
   d="M37.16,44.94c-1.6,0-2.82,0.49-3.68,1.46c-0.85,0.98-1.28,2.36-1.28,4.14c0,1.81,0.47,3.2,1.42,4.17      c0.94,0.98,2.22,1.46,3.82,1.46c0.85,0,1.57-0.11,2.16-0.34c0.59-0.23,1.16-0.49,1.7-0.78c0.35,0.29,0.63,0.64,0.83,1.04      c0.2,0.4,0.3,0.88,0.3,1.42c0,0.85-0.47,1.57-1.42,2.16s-2.38,0.89-4.31,0.89c-1.39,0-2.7-0.2-3.92-0.59      c-1.23-0.39-2.29-1-3.21-1.82c-0.91-0.82-1.63-1.86-2.16-3.12c-0.53-1.26-0.79-2.76-0.79-4.5c0-1.62,0.25-3.05,0.76-4.28      c0.51-1.24,1.2-2.28,2.09-3.13c0.88-0.85,1.92-1.49,3.1-1.93c1.18-0.44,2.45-0.65,3.8-0.65c1.91,0,3.39,0.31,4.44,0.93      c1.05,0.62,1.57,1.42,1.57,2.4c0,0.54-0.14,1.01-0.4,1.4c-0.27,0.39-0.58,0.71-0.93,0.93c-0.54-0.35-1.12-0.65-1.73-0.9      C38.68,45.06,37.97,44.94,37.16,44.94z"
   id="path651" />
			</g>
			<g
   class="st13"
   id="g659">
				<path
   class="st9"
   d="M44.07,50.54c0-1.62,0.25-3.05,0.76-4.3c0.51-1.25,1.2-2.29,2.09-3.13c0.88-0.84,1.92-1.48,3.11-1.92      c1.19-0.44,2.49-0.65,3.88-0.65c1.39,0,2.68,0.22,3.88,0.65c1.19,0.44,2.24,1.07,3.13,1.92c0.89,0.84,1.59,1.88,2.1,3.13      c0.51,1.25,0.76,2.68,0.76,4.3c0,1.62-0.25,3.06-0.75,4.31c-0.5,1.26-1.19,2.3-2.07,3.15c-0.88,0.84-1.93,1.48-3.13,1.91      c-1.2,0.44-2.51,0.65-3.93,0.65s-2.72-0.22-3.92-0.67c-1.2-0.45-2.24-1.09-3.11-1.95c-0.87-0.85-1.56-1.9-2.06-3.15      C44.32,53.56,44.07,52.14,44.07,50.54z M49.68,50.54c0,1.89,0.38,3.3,1.15,4.24c0.77,0.93,1.79,1.4,3.08,1.4      c1.31,0,2.35-0.47,3.12-1.4c0.77-0.93,1.15-2.35,1.15-4.24c0-1.87-0.38-3.27-1.14-4.2c-0.76-0.93-1.79-1.4-3.1-1.4      c-1.29,0-2.32,0.46-3.1,1.39C50.07,47.25,49.68,48.65,49.68,50.54z"
   id="path655" />
				<path
   class="st9"
   d="M68.86,49.73c1.25,0,2.21,0.3,2.88,0.89c0.67,0.59,1.01,1.35,1.01,2.29c0,0.64-0.21,1.26-0.64,1.85      c-0.43,0.59-0.95,1.16-1.57,1.7l-1.18,1.03h3.24c0.06,0.15,0.13,0.33,0.2,0.55c0.07,0.22,0.11,0.44,0.11,0.67      c0,0.46-0.1,0.78-0.3,0.97c-0.2,0.19-0.46,0.28-0.79,0.28h-5.51c-0.23-0.17-0.41-0.37-0.55-0.61c-0.13-0.24-0.2-0.52-0.2-0.86      c0-0.35,0.04-0.65,0.12-0.89c0.08-0.24,0.19-0.44,0.31-0.61l2.24-2.06c0.31-0.27,0.56-0.5,0.75-0.7      c0.19-0.2,0.33-0.37,0.44-0.51c0.1-0.14,0.17-0.28,0.2-0.39c0.03-0.11,0.05-0.22,0.05-0.33c0-0.27-0.1-0.47-0.3-0.61      c-0.2-0.14-0.46-0.2-0.79-0.2c-0.46,0-0.86,0.07-1.2,0.2c-0.34,0.13-0.63,0.28-0.86,0.42c-0.17-0.14-0.31-0.34-0.44-0.58      c-0.12-0.24-0.19-0.51-0.19-0.83c0-0.56,0.26-0.98,0.79-1.26S67.95,49.73,68.86,49.73z"
   id="path657" />
			</g>
			<path
   class="st21"
   d="M16.79,69.81h8.38c0,0.24,0,0.49,0,0.73c0,6.61,5.36,11.97,11.97,11.97s11.97-5.36,11.97-11.97     c0-0.24,0-0.49,0-0.73h33.42c7.84-0.09,14.16-6.46,14.18-14.3l0,0c-0.04-7.87-6.43-14.24-14.3-14.26h-1.85     c0-7.05-5.71-12.76-12.76-12.77c-3.28,0-6.44,1.26-8.82,3.53c-3.59-11.47-15.8-17.86-27.27-14.27     c-9.07,2.84-15.26,11.24-15.27,20.75c0.01,0.92,0.07,1.85,0.19,2.76C8.8,41.33,2.48,47.7,2.46,55.54l0,0     C2.5,63.42,8.9,69.8,16.79,69.81"
   id="path661" />
		</g>
	</g>
	<line
   class="st10"
   x1="86.12"
   y1="6.43"
   x2="86.12"
   y2="34.8"
   id="line666" />
	<polyline
   class="st10"
   points="77.58,15.67 86,3.88 94.66,15.67  "
   id="polyline668" />
</g>
<g
   id="co2_x5F_flasche"
   class="st0">
	<g
   class="st5"
   id="g720">
		<g
   id="quadrate_1_">
			<g
   id="g683">
				<defs
   id="defs672">
					<rect
   id="SVGID_1_"
   x="33.86"
   y="0.19"
   width="28.93"
   height="100.06" />
				</defs>
				<clipPath
   id="SVGID_2_">
					<use
   xlink:href="#SVGID_1_"
   style="overflow:visible;"
   id="use674" />
				</clipPath>
				<g
   class="st22"
   clip-path="url(#SVGID_2_)"
   id="g681">
					<path
   class="st23"
   d="M60.98,87.97c0,6.88-5.33,7.46-11.76,7.46s-11.74-0.59-11.74-7.46V25.71c0-6.87,5.32-12.41,11.74-12.41       s11.76,5.54,11.76,12.41V87.97z"
   id="path677" />
					<path
   class="st19"
   d="M60.98,87.97c0,6.88-5.33,7.46-11.76,7.46s-11.74-0.59-11.74-7.46V25.71c0-6.87,5.32-12.41,11.74-12.41       s11.76,5.54,11.76,12.41V87.97z"
   id="path679" />
				</g>
			</g>
			<line
   class="st20"
   x1="45.21"
   y1="7.87"
   x2="55.68"
   y2="7.87"
   id="line685" />
			<line
   class="st20"
   x1="49.41"
   y1="8.62"
   x2="49.41"
   y2="12.04"
   id="line687" />
			<g
   id="g701">
				<defs
   id="defs690">
					<rect
   id="SVGID_3_"
   x="33.86"
   y="0.19"
   width="28.93"
   height="100.06" />
				</defs>
				<clipPath
   id="SVGID_4_">
					<use
   xlink:href="#SVGID_3_"
   style="overflow:visible;"
   id="use692" />
				</clipPath>
				<g
   class="st24"
   clip-path="url(#SVGID_4_)"
   id="g699">
					<path
   class="st23"
   d="M44.38,5.24c0.02,1.91-1.52,3.47-3.42,3.49c-1.91,0.02-3.47-1.52-3.49-3.42       c-0.02-1.91,1.52-3.47,3.42-3.49c0.01,0,0.02,0,0.03,0c1.9-0.01,3.44,1.52,3.45,3.41C44.38,5.23,44.38,5.23,44.38,5.24"
   id="path695" />
					<path
   class="st19"
   d="M44.38,6.22c0.02,1.91-1.52,3.47-3.42,3.49c-1.91,0.02-3.47-1.52-3.49-3.42       c-0.02-1.91,1.52-3.47,3.42-3.49c0.01,0,0.02,0,0.03,0C42.83,2.8,44.37,4.33,44.38,6.22z"
   id="path697" />
				</g>
			</g>
			<g
   id="g717">
				<defs
   id="defs704">
					<rect
   id="SVGID_5_"
   x="33.86"
   y="0.19"
   width="28.93"
   height="100.06" />
				</defs>
				<clipPath
   id="SVGID_6_">
					<use
   xlink:href="#SVGID_5_"
   style="overflow:visible;"
   id="use706" />
				</clipPath>
				<g
   class="st25"
   clip-path="url(#SVGID_6_)"
   id="g715">
					<rect
   x="56.52"
   y="5.85"
   class="st26"
   width="3.62"
   height="3.61"
   id="rect709" />
					<text
   transform="matrix(0 -1 1 0 55.3418 85.4707)"
   class="st9 st27 st28"
   id="text711">C</text>

					<text
   transform="matrix(0 -1 1 0 55.3418 75.2822)"
   class="st9 st27 st28"
   id="text713">O₂</text>

				</g>
			</g>
		</g>
	</g>
</g>
<g
   transform="translate(-2.6140709,0.49006778)"
   id="FURW2H.tif_2_-3"><g
     id="g468"><path
       inkscape:connector-curvature="0"
       id="path464"
       d="m 67.03,4.15 c 0.03,-0.05 0.07,-0.1 0.09,-0.16 0.28,-0.64 0.73,-1.13 1.38,-1.4 1.14,-0.48 2.42,-0.13 3.18,0.87 0.57,0.74 1.12,1.49 1.69,2.26 0.48,-0.36 0.94,-0.71 1.4,-1.06 0.5,-0.38 0.82,-0.34 1.19,0.16 0.36,0.47 0.71,0.94 1.06,1.41 0.36,0.48 0.32,0.8 -0.17,1.17 -0.37,0.28 -0.75,0.55 -1.21,0.89 0.13,0.13 0.24,0.2 0.32,0.3 2.02,2.69 4.03,5.38 6.05,8.06 2.36,3.13 4.01,6.6 4.93,10.42 0.08,0.32 0.09,0.62 -0.2,0.85 -0.3,0.23 -0.59,0.15 -0.89,-0.02 -3.2,-1.83 -5.96,-4.19 -8.2,-7.12 -2.19,-2.86 -4.33,-5.76 -6.5,-8.65 -0.07,-0.09 -0.14,-0.18 -0.24,-0.3 -0.39,0.3 -0.77,0.6 -1.16,0.89 -0.43,0.32 -0.78,0.27 -1.1,-0.16 -0.36,-0.47 -0.71,-0.94 -1.06,-1.41 -0.4,-0.54 -0.36,-0.83 0.17,-1.24 C 68.22,9.56 68.68,9.22 69.15,8.87 68.73,8.32 68.35,7.79 67.95,7.28 67.44,6.63 66.96,5.97 66.87,5.11 66.94,4.78 66.98,4.46 67.03,4.15 Z m 8.61,11.72 c 1.44,1.86 2.83,3.76 4.34,5.57 1.43,1.72 3.16,3.12 5.03,4.35 0.06,0.04 0.13,0.08 0.26,0.15 -0.05,-0.17 -0.08,-0.28 -0.11,-0.4 -0.93,-2.95 -2.36,-5.62 -4.18,-8.12 -0.55,-0.76 -1.14,-1.18 -2.09,-1.24 -0.99,-0.05 -1.97,-0.26 -2.96,-0.4 -0.1,-0.01 -0.2,-0.02 -0.33,-0.03 0.02,0.07 0.02,0.1 0.04,0.12 z m -3.4,-5.01 c -0.07,0.05 -0.13,0.11 -0.22,0.19 0.37,0.48 0.73,0.96 1.08,1.43 0.39,0.52 0.78,1.05 1.18,1.56 0.07,0.09 0.19,0.18 0.3,0.2 1.43,0.21 2.86,0.41 4.28,0.62 0.03,0 0.06,0 0.05,0 -1.43,-1.9 -2.87,-3.82 -4.32,-5.76 -0.75,0.56 -1.55,1.16 -2.35,1.76 z M 72.3,6.46 C 72.14,6.25 71.95,6.03 71.78,5.81 71.38,5.28 70.99,4.74 70.58,4.22 70.14,3.66 69.33,3.55 68.77,3.95 c -0.55,0.4 -0.7,1.2 -0.29,1.77 0.56,0.78 1.15,1.54 1.73,2.3 C 70.91,7.5 71.58,7 72.3,6.46 Z m -2.9,4.79 C 71.46,9.7 73.54,8.15 75.61,6.6 75.48,6.43 75.34,6.23 75.21,6.06 c -2.06,1.55 -4.13,3.1 -6.22,4.67 0.13,0.17 0.28,0.36 0.41,0.52 z" /><path
       inkscape:connector-curvature="0"
       id="path466"
       d="m 84.35,37.7 c -0.05,-0.03 -0.1,-0.07 -0.16,-0.09 -1.76,-0.66 -2.59,-2.66 -1.77,-4.34 0.79,-1.61 1.96,-2.95 3.15,-4.27 0.3,-0.34 0.87,-0.25 1.06,0.15 0.75,1.55 1.46,3.12 1.8,4.82 0.28,1.4 -0.27,2.69 -1.48,3.36 -0.48,0.26 -1.06,0.35 -1.59,0.51 -0.33,-0.04 -0.67,-0.09 -1.01,-0.14 z m -0.78,-3.75 c -0.32,0.67 -0.12,1.49 0.44,2.02 0.59,0.55 1.45,0.67 2.17,0.3 0.68,-0.35 1.09,-1.09 0.98,-1.82 -0.21,-1.31 -0.76,-2.5 -1.28,-3.79 -0.88,1.08 -1.74,2.08 -2.31,3.29 z" /></g></g><line
   style="fill:none;stroke:#000000;stroke-width:3;stroke-linecap:round;stroke-linejoin:round;stroke-miterlimit:10"
   id="line483"
   y2="5.5800681"
   x2="13.28593"
   y1="33.960068"
   x1="13.28593"
   class="st19" /><polyline
   transform="translate(-2.6140709,0.49006778)"
   style="fill:none;stroke:#000000;stroke-width:3;stroke-linecap:round;stroke-linejoin:round;stroke-miterlimit:10"
   id="polyline485"
   points="24.44,24.22 16.01,36.02 7.36,24.22  "
   class="st19" /></svg>