<svg xmlns="http://www.w3.org/2000/svg" viewBox="0 0 97.99 97.99"><defs><style>.cls-1{fill:#1d1d1c;}.cls-2,.cls-3{fill:none;}.cls-2{stroke:#1d1d1c;stroke-miterlimit:10;stroke-width:3px;}</style></defs><title></title><g id="Ebene_2" data-name="Ebene 2"><g id="programming"><circle class="cls-1" cx="15.98" cy="83.51" r="1.91"/><path class="cls-2" d="M88,30.08a21.51,21.51,0,0,0-.08-3.6A2.24,2.24,0,0,0,84,25.2l-7.12,7.54A9.67,9.67,0,0,1,64.05,34a9.49,9.49,0,0,1-1.11-14l7.32-7.76a2.25,2.25,0,0,0-1.51-3.78,20.79,20.79,0,0,0-3.6.13A20.34,20.34,0,0,0,49.94,38.7L11.71,79.23a6.19,6.19,0,0,0-.52,8,6.09,6.09,0,0,0,9.23.46L58.77,47A20.35,20.35,0,0,0,88,30.08Z"/></g><g id="quadrate"><rect class="cls-3" width="97.99" height="97.99"/></g></g></svg>
