<svg xmlns="http://www.w3.org/2000/svg" viewBox="0 0 97.99 97.99"><defs><style>.cls-1,.cls-2{fill:none;}.cls-2{stroke:#1d1d1b;stroke-miterlimit:10;stroke-width:2.46px;}</style></defs><title></title><g id="Ebene_2" data-name="Ebene 2"><g id="quadrate"><rect class="cls-1" width="97.99" height="97.99"/></g><g id="hysterese"><path class="cls-2" d="M76.5,6.87a9.15,9.15,0,0,0-3-.66L29.81,3.65a17.49,17.49,0,0,0-2-.12,17.95,17.95,0,0,0-5.29,35.1,7,7,0,0,1,5,6.61V74.75a4.65,4.65,0,0,0,4.65,4.65h8.54a4.65,4.65,0,0,0,4.64-4.65l.1-31.4a7,7,0,0,1,6.12-6.9l22.53-2.76a9.1,9.1,0,0,0,2.8-.81l11.62-5.43a2.34,2.34,0,0,0,1.34-2.11V13.86a2.33,2.33,0,0,0-1.45-2.16Z"/><path class="cls-2" d="M36.1,79.4c0,8.67-5.57,15.68-12.45,15.68"/><circle class="cls-2" cx="28.22" cy="21.71" r="10.26"/><line class="cls-2" x1="74.96" y1="6.56" x2="74.96" y2="33.51"/><line class="cls-2" x1="17.96" y1="21.71" x2="38.17" y2="21.71"/><line class="cls-2" x1="17.96" y1="18.17" x2="38.17" y2="18.17"/><line class="cls-2" x1="20.49" y1="14.79" x2="35.79" y2="14.79"/><line class="cls-2" x1="38.17" y1="25.17" x2="17.96" y2="25.17"/><line class="cls-2" x1="35.64" y1="28.55" x2="20.34" y2="28.55"/></g></g></svg>
