<?xml version="1.0" encoding="UTF-8" standalone="no"?>
<svg
   xmlns:dc="http://purl.org/dc/elements/1.1/"
   xmlns:cc="http://creativecommons.org/ns#"
   xmlns:rdf="http://www.w3.org/1999/02/22-rdf-syntax-ns#"
   xmlns:svg="http://www.w3.org/2000/svg"
   xmlns="http://www.w3.org/2000/svg"
   xmlns:sodipodi="http://sodipodi.sourceforge.net/DTD/sodipodi-0.dtd"
   xmlns:inkscape="http://www.inkscape.org/namespaces/inkscape"
   viewBox="0 0 80.16 91.04"
   version="1.1"
   id="svg4603"
   sodipodi:docname="seedling.svg"
   inkscape:version="0.92.5 (2060ec1f9f, 2020-04-08)">
  <metadata
     id="metadata4609">
    <rdf:RDF>
      <cc:Work
         rdf:about="">
        <dc:format>image/svg+xml</dc:format>
        <dc:type
           rdf:resource="http://purl.org/dc/dcmitype/StillImage" />
        <dc:title></dc:title>
      </cc:Work>
    </rdf:RDF>
  </metadata>
  <defs
     id="defs4607" />
  <sodipodi:namedview
     pagecolor="#ffffff"
     bordercolor="#666666"
     borderopacity="1"
     objecttolerance="10"
     gridtolerance="10"
     guidetolerance="10"
     inkscape:pageopacity="0"
     inkscape:pageshadow="2"
     inkscape:window-width="1916"
     inkscape:window-height="2064"
     id="namedview4605"
     showgrid="false"
     inkscape:zoom="12.279099"
     inkscape:cx="44.254275"
     inkscape:cy="42.024751"
     inkscape:window-x="3840"
     inkscape:window-y="67"
     inkscape:window-maximized="0"
     inkscape:current-layer="svg4603" />
  <g
     id="Ebene_2"
     data-name="Ebene 2"
     transform="matrix(0.3869905,0,0,0.3869905,25.246151,34.611659)">
    <g
       id="ICONS">
      <g
         id="pflanze_klein">
        <path
           d="M 37.71,76.23 A 3.68,3.68 0 0 1 36.42,76 a 3.51,3.51 0 0 1 -2,-4.55 11.65,11.65 0 0 1 3.58,-4.18 18.44,18.44 0 0 0 3.62,-3.8 C 42.11,62 40.88,56.3 40,52.15 A 105.74,105.74 0 0 1 37.4,36.47 C 35.82,8.76 48.56,2.48 56.29,1.21 69.5,-1 77.91,6 78.26,6.29 l 1.9,1.61 -0.88,2.31 a 22.38,22.38 0 0 1 -15,12.87 30,30 0 0 1 -14.38,-0.32 3.5,3.5 0 1 1 2.06,-6.69 23.07,23.07 0 0 0 10.68,0.2 14.83,14.83 0 0 0 8.76,-6.12 22.25,22.25 0 0 0 -13.94,-2 c -12,2 -13.71,16.29 -13,28 a 101.53,101.53 0 0 0 2.43,14.6 c 1.65,7.62 2.85,13.13 0.8,16.42 a 24.39,24.39 0 0 1 -5,5.47 16.28,16.28 0 0 0 -1.68,1.57 3.49,3.49 0 0 1 -3.3,2.02 z M 41,74 Z"
           id="path4594"
           inkscape:connector-curvature="0" />
        <path
           d="M 22.66,24.07 A 26.09,26.09 0 0 1 16.35,23.34 24.14,24.14 0 0 1 1.23,11.21 L 0,8.59 2.34,6.89 C 2.73,6.6 11.93,0 22.55,0 h 0.13 c 11,0.05 21,12.63 22.06,14.07 a 3.5,3.5 0 0 1 -5.56,4.24 C 36.77,15.17 29.12,7 22.64,7 H 22.55 C 17.3,7 12.29,9.19 9.29,10.82 a 16.51,16.51 0 0 0 8.77,5.73 c 6.44,1.62 13.92,-1 14,-1.06 a 3.502492,3.502492 0 0 1 2.43,6.57 37.58,37.58 0 0 1 -11.83,2.01 z"
           id="path4596"
           inkscape:connector-curvature="0" />
        <path
           d="m 33.39,91 a 13.57,13.57 0 0 1 -9.81,-3.89 c -6.15,-6.14 -5,-17.3 2.56,-24.86 a 22.44,22.44 0 0 1 11.14,-6.16 3.5261948,3.5261948 0 0 1 1.41,6.91 15.41,15.41 0 0 0 -7.6,4.25 c -4.75,4.75 -5.92,11.6 -2.56,15 3.36,3.4 9.73,2.07 15.12,-2.7 C 47.12,76.43 49,72 48,69.07 A 3.501464,3.501464 0 1 1 54.69,67 C 56.47,72.66 53.9,79.8 48.29,84.77 43.59,88.9 38.24,91 33.39,91 Z"
           id="path4598"
           inkscape:connector-curvature="0" />
      </g>
    </g>
  </g>
  <path
     style="fill:none;stroke:#000000;stroke-width:2.89133859;stroke-linecap:round;stroke-linejoin:miter;stroke-miterlimit:4;stroke-dasharray:none;stroke-opacity:1"
     d="M 2.8503719,74.670722 C 3.1761287,74.182087 18.24238,18.721993 18.24238,18.721993 l 43.73285,-1e-6 15.310569,56.03017"
     id="path4611"
     inkscape:connector-curvature="0"
     sodipodi:nodetypes="cccc" />
</svg>
