<svg xmlns="http://www.w3.org/2000/svg" viewBox="0 0 149.52 149.76"><g id="Ebene_2" data-name="Ebene 2"><g id="ICONS"><g id="Pflanze_groß"><path d="M70.75,149.76a3.5,3.5,0,0,1-3.5-3.47c0-.42-.49-42.14-11.88-61.6a88.18,88.18,0,0,0-28.16-29.3,3.5,3.5,0,0,1,3.51-6.06A93.91,93.91,0,0,1,61.41,81.15c12.34,21.08,12.83,63.3,12.84,65.08a3.49,3.49,0,0,1-3.47,3.53Z"/><path d="M70.75,149.76h-.13a3.49,3.49,0,0,1-3.36-3.63c.1-2.82,2.75-69.38,14.07-92.38,11.42-23.22,23.46-30.93,24-31.25A3.5,3.5,0,0,1,109,28.44c-.1.06-11,7.17-21.4,28.4C77,78.52,74.28,145.72,74.25,146.4A3.5,3.5,0,0,1,70.75,149.76Z"/><path d="M28.18,79.05A23.15,23.15,0,0,1,15,75.37C-.06,65-.12,37.64,0,32.25a4.05,4.05,0,0,1,3.56-3.92c.35,0,1.12-.2,1.94-.37,6.59-1.35,22-4.53,33.93,3.9a3.5,3.5,0,1,1-4.05,5.71C26,30.93,12.75,33.62,7,34.81A82.48,82.48,0,0,0,8.49,49.65C9.83,56.39,12.74,65.31,19,69.6s15.56,1.67,15.66,1.64a3.5,3.5,0,0,1,2,6.72A32.48,32.48,0,0,1,28.18,79.05Z"/><path d="M122.2,41.57a3.43,3.43,0,0,1-2.3-.87,3.49,3.49,0,0,1-.33-4.93c7.59-8.66,7.47-22.48,7.22-28.41a82.27,82.27,0,0,0-14.83,0C105.13,8,96,9.94,91,15.72S87.79,31,87.81,31.11a3.5,3.5,0,1,1-6.89,1.27c-.09-.52-2.28-12.89,4.79-21.2C97.55-2.76,124.79,0,130.13.68a4,4,0,0,1,3.54,4c0,.29,0,.69.05,1.19.28,5.72,1.14,23.12-8.88,34.56A3.49,3.49,0,0,1,122.2,41.57Zm7-33.94h0Z"/><path d="M119.47,87.53A21.62,21.62,0,0,1,108,84.15a3.5,3.5,0,0,1,4-5.75A13.92,13.92,0,0,0,123.12,80c9.06-2.71,15.67-15.85,18.72-24.78-5.58-2.3-19-7-28.38-4.06-7,2.21-8.79,9.59-8.86,9.91a3.5,3.5,0,0,1-6.84-1.51c.1-.47,2.64-11.62,13.6-15.08,13.68-4.32,32.26,3.77,35.85,5.44a4,4,0,0,1,2.15,4.73c-1.33,4.54-8.75,27.42-24.23,32.05A19.49,19.49,0,0,1,119.47,87.53Z"/><path d="M57.79,63.39a3.45,3.45,0,0,1-1.3-.25c-.94-.38-5.68-2.43-7.52-6.14-4.52-9.11-1.49-23-1.46-23.09a3.77,3.77,0,0,1,4-3l.78,0c4.69.15,19,.63,24,9.31a12.46,12.46,0,0,1,1.2,9.33,3.5,3.5,0,0,1-6.72-1.95,5.58,5.58,0,0,0-.52-3.84C68.92,41.52,65,38.7,53.91,38.06c-.54,4.1-.92,11.31,1.33,15.83.43.87,2.38,2.15,3.86,2.75a3.5,3.5,0,0,1-1.31,6.75Z"/><path d="M77.24,82.43a3.5,3.5,0,0,1-3.43-2.83c0-.26-3.51-17.32-13.14-27.63a3.5,3.5,0,1,1,5.12-4.78C76.84,59,80.53,77.48,80.68,78.26a3.5,3.5,0,0,1-2.77,4.11A3.88,3.88,0,0,1,77.24,82.43Z"/><path d="M87.34,149.76H55.27a3.5,3.5,0,0,1,0-7H87.34a3.5,3.5,0,0,1,0,7Z"/><path d="M72.4,124a3.51,3.51,0,0,1-3.32-4.63c.31-.9,7.61-22.2,20.13-38,17.33-21.83,30-21.76,31.4-21.69a3.5,3.5,0,0,1-.39,7s-10.49.11-25.53,19.06c-11.77,14.81-18.91,35.64-19,35.85A3.49,3.49,0,0,1,72.4,124Z"/></g></g></g></svg>
